<?xml version="1.0" encoding="UTF-8"?>
<svg id="Calque_1" xmlns="http://www.w3.org/2000/svg" width="2583.849mm" height="657.578mm" version="1.1" viewBox="0 0 7324.296 1864">
  <!-- Generator: Adobe Illustrator 29.5.0, SVG Export Plug-In . SVG Version: 2.1.0 Build 137)  -->
  <defs>
    <style>
      .st0 {
        stroke-width: .283px;
      }

      .st0, .st1 {
        stroke-miterlimit: 11.339;
      }

      .st0, .st1, .st2, .st3, .st4, .st5, .st6 {
        fill: none;
      }

      .st0, .st1, .st4, .st5 {
        stroke-linecap: round;
      }

      .st0, .st5 {
        stroke: #e52521;
      }

      .st7 {
        fill: #1d1d1b;
      }

      .st1 {
        stroke: #2b4b9b;
        stroke-width: .283px;
      }

      .st2 {
        stroke: #1e1e1c;
      }

      .st2, .st3, .st8, .st4, .st6 {
        stroke-width: .25px;
      }

      .st3, .st8 {
        stroke: #1d1d1b;
      }

      .st3, .st8, .st6 {
        stroke-miterlimit: 10;
      }

      .st8 {
        fill: #fff;
      }

      .st4 {
        stroke: #010101;
        stroke-linejoin: round;
      }

      .st5 {
        stroke-miterlimit: 11.339;
        stroke-width: .283px;
      }

      .st6 {
        stroke: #2c4c9a;
      }
    </style>
  </defs>
  <circle class="st3" cx="6616.868" cy="1487.435" r="29.764"/>
  <circle class="st8" cx="227.836" cy="241.754" r="42.52"/>
  <circle class="st8" cx="114.45" cy="241.754" r="42.52"/>
  <circle class="st8" cx="341.222" cy="241.754" r="42.52"/>
  <circle class="st8" cx="454.608" cy="241.754" r="42.52"/>
  <circle class="st8" cx="567.994" cy="241.754" r="42.52"/>
  <circle class="st8" cx="341.223" cy="129.676" r="42.52"/>
  <rect class="st3" x="6383.899" y="1446.332" width="34.016" height="36.85"/>
  <rect class="st3" x="6300.236" y="1446.332" width="28.346" height="34.016"/>
  <path id="front_outsideCutPath" class="st0" d="M6173.506,1427.907v34.639h8.504v49.776h-8.504v34.639h69.959v-8.504h49.776v8.504h49.776v-8.504h49.776v8.504h49.776v-8.504h49.776v8.504h49.776v-8.504h49.776v8.504h49.776v-8.504h49.776v8.504h49.776v-8.504h49.776v8.504h49.776v-8.504h49.776v8.504h49.776v-8.504h49.776v8.504h49.776v-8.504h49.776v8.504h49.776v-8.504h49.776v8.504h69.959v-34.639h-8.504v-49.776h8.504v-34.639h-69.959v8.504h-49.776v-8.504h-49.776v8.504h-49.776v-8.504h-49.776v8.504h-49.776v-8.504h-49.776v8.504h-49.776v-8.504h-49.776v8.504h-49.776v-8.504h-49.776v8.504h-49.776v-8.504h-49.776v8.504h-49.776v-8.504h-49.776v8.504h-49.776v-8.504h-49.776v8.504h-49.776v-8.504h-49.776v8.504h-49.776v-8.504h-69.959Z" vector-effect="non-scaling-stroke"/>
  <path id="left_outsideCutPath" class="st0" d="M1276.655,1756.369h34.639v8.504h49.776v-8.504h34.639v-80.561h-8.504v-49.776h8.504v-49.776h-8.504v-49.776h8.504v-49.776h-8.504v-49.776h8.504v-49.776h-8.504v-49.776h8.504v-49.776h-8.504v-49.776h8.504v-49.776h-8.504v-49.776h8.504v-80.561h-34.639v-8.504h-49.776v8.504h-34.639v80.561h8.504v49.776h-8.504v49.776h8.504v49.776h-8.504v49.776h8.504v49.776h-8.504v49.776h8.504v49.776h-8.504v49.776h8.504v49.776h-8.504v49.776h8.504v49.776h-8.504v80.561Z" vector-effect="non-scaling-stroke"/>
  <circle class="st8" cx="2853.088" cy="1216.369" r="42.52"/>
  <circle class="st8" cx="3274.033" cy="1216.369" r="42.52"/>
  <rect class="st3" x="2557.576" y="1301.408" width="56.693" height="56.693" transform="translate(3915.677 -1256.168) rotate(90)"/>
  <rect class="st3" x="3512.852" y="1301.408" width="56.693" height="56.693" transform="translate(4870.953 -2211.443) rotate(90)"/>
  <path class="st3" d="M3484.501,1329.759v297.63h-841.89v-112.48c-19.93,0-36.33-16.4-36.33-36.33s16.4-36.34,36.33-36.34v-112.48h841.89Z"/>
  <rect class="st3" x="3512.852" y="1669.912" width="56.693" height="56.693" transform="translate(5239.457 -1842.939) rotate(90)"/>
  <rect class="st3" x="2557.576" y="1669.912" width="56.693" height="56.693" transform="translate(4284.181 -887.664) rotate(90)"/>
  <circle class="st8" cx="3251.525" cy="1101.038" r="6.803"/>
  <circle class="st8" cx="3157.543" cy="1101.038" r="6.803"/>
  <circle class="st8" cx="3063.56" cy="1101.038" r="6.803"/>
  <circle class="st8" cx="3439.49" cy="1101.038" r="7.087"/>
  <circle class="st8" cx="3345.507" cy="1101.038" r="6.803"/>
  <rect class="st3" x="2557.576" y="1072.691" width="56.693" height="56.693" transform="translate(3686.961 -1484.885) rotate(90)"/>
  <rect class="st3" x="3512.852" y="1072.691" width="56.693" height="56.693" transform="translate(4642.236 -2440.16) rotate(90)"/>
  <circle class="st8" cx="3063.56" cy="1216.369" r="6.803"/>
  <path id="top_outsideCutPath" class="st0" d="M2529.23,1060.464v80.561h-8.504v49.776h8.504v49.776h-8.504v49.776h8.504v49.776h-8.504v49.776h8.504v49.776h-8.504v49.776h8.504v49.776h-8.504v49.776h8.504v49.776h-8.504v49.776h8.504v80.561h61.455v8.504h49.776v-8.504h49.776v8.504h49.776v-8.504h49.776v8.504h49.776v-8.504h49.776v8.504h49.776v-8.504h49.776v8.504h49.776v-8.504h49.777v8.504h49.776v-8.504h49.776v8.504h49.776v-8.504h49.776v8.504h49.776v-8.504h49.776v8.504h49.776v-8.504h49.776v8.504h49.776v-8.504h61.455v-80.561h8.504v-49.776h-8.504v-49.776h8.504v-49.776h-8.504v-49.776h8.504v-49.776h-8.504v-49.776h8.504v-49.776h-8.504v-49.776h8.504v-49.776h-8.504v-49.776h8.504v-49.776h-8.504v-80.561h-61.455v-8.504h-49.776v8.504h-49.776v-8.504h-49.776v8.504h-49.776v-8.504h-49.776v8.504h-49.776v-8.504h-49.776v8.504h-49.776v-8.504h-49.776v8.504h-49.777v-8.504h-49.776v8.504h-49.776v-8.504h-49.776v8.504h-49.776v-8.504h-49.776v8.504h-49.776v-8.504h-49.776v8.504h-49.776v-8.504h-49.776v8.504h-61.455Z" vector-effect="non-scaling-stroke"/>
  <path id="back_outsideCutPath" class="st0" d="M6173.506,1302.906v34.639h8.504v49.776h-8.504v34.639h69.959v-8.504h49.776v8.504h49.776v-8.504h49.776v8.504h49.776v-8.504h49.776v8.504h49.776v-8.504h49.776v8.504h49.776v-8.504h49.776v8.504h49.776v-8.504h49.776v8.504h49.776v-8.504h49.776v8.504h49.776v-8.504h49.776v8.504h49.776v-8.504h49.776v8.504h49.776v-8.504h49.776v8.504h69.959v-34.639h-8.504v-49.776h8.504v-34.639h-69.959v8.504h-49.776v-8.504h-49.776v8.504h-49.776v-8.504h-49.776v8.504h-49.776v-8.504h-49.776v8.504h-49.776v-8.504h-49.776v8.504h-49.776v-8.504h-49.776v8.504h-49.776v-8.504h-49.776v8.504h-49.776v-8.504h-49.776v8.504h-49.776v-8.504h-49.776v8.504h-49.776v-8.504h-49.776v8.504h-49.776v-8.504h-69.959Z" vector-effect="non-scaling-stroke"/>
  <path id="right_outsideCutPath" class="st0" d="M1149.096,1756.369h34.639v8.504h49.776v-8.504h34.639v-80.561h-8.504v-49.776h8.504v-49.776h-8.504v-49.776h8.504v-49.776h-8.504v-49.776h8.504v-49.776h-8.504v-49.776h8.504v-49.776h-8.504v-49.776h8.504v-49.776h-8.504v-49.776h8.504v-80.561h-34.639v-8.504h-49.776v8.504h-34.639v80.561h8.504v49.776h-8.504v49.776h8.504v49.776h-8.504v49.776h8.504v49.776h-8.504v49.776h8.504v49.776h-8.504v49.776h8.504v49.776h-8.504v49.776h8.504v49.776h-8.504v80.561Z" vector-effect="non-scaling-stroke"/>
  <path id="bottom_outsideCutPath" class="st0" d="M4349.684,1047.708v80.561h-8.504v49.776h8.504v49.776h-8.504v49.776h8.504v49.776h-8.504v49.776h8.504v49.776h-8.504v49.776h8.504v49.776h-8.504v49.776h8.504v49.776h-8.504v49.776h8.504v80.561h61.455v8.504h49.776v-8.504h49.776v8.504h49.776v-8.504h49.776v8.504h49.776v-8.504h49.776v8.504h49.776v-8.504h49.776v8.504h49.776v-8.504h49.777v8.504h49.776v-8.504h49.776v8.504h49.776v-8.504h49.776v8.504h49.776v-8.504h49.776v8.504h49.776v-8.504h49.776v8.504h49.776v-8.504h61.455v-80.561h8.504v-49.776h-8.504v-49.776h8.504v-49.776h-8.504v-49.776h8.504v-49.776h-8.504v-49.776h8.504v-49.776h-8.504v-49.776h8.504v-49.776h-8.504v-49.776h8.504v-49.776h-8.504v-80.561h-61.455v-8.504h-49.776v8.504h-49.776v-8.504h-49.776v8.504h-49.776v-8.504h-49.776v8.504h-49.776v-8.504h-49.776v8.504h-49.776v-8.504h-49.776v8.504h-49.777v-8.504h-49.776v8.504h-49.776v-8.504h-49.776v8.504h-49.776v-8.504h-49.776v8.504h-49.776v-8.504h-49.776v8.504h-49.776v-8.504h-49.776v8.504h-61.455Z" vector-effect="non-scaling-stroke"/>
  <path id="left_outsideCutPath1" data-name="left_outsideCutPath" class="st1" d="M1411.805,1387.865h26.135v8.504h49.776v-8.504h26.135v-51.307h-8.504v-49.776h8.504v-49.776h-8.504v-49.776h8.504v-49.776h-8.504v-49.776h8.504v-51.307h-26.135v-8.504h-49.776v8.504h-26.135v51.307h8.504v49.776h-8.504v49.776h8.504v49.776h-8.504v49.776h8.504v49.776h-8.504v51.307Z" vector-effect="non-scaling-stroke"/>
  <path id="back_outsideCutPath1" data-name="back_outsideCutPath" class="st1" d="M6182.01,1051.87v26.135h8.504v49.776h-8.504v26.135h61.455v-8.504h49.776v17.008s49.776,0,49.776,0v-17.008h49.776v8.504h49.776v-8.504h49.776v8.504h49.776v-8.504h49.776v8.504h49.776v-8.504h49.776v8.504h49.776v-8.504h49.776v8.504h49.776v-8.504h49.776v8.504h49.776v-8.504h49.776v8.504h49.776v-8.504h49.776v17.008h49.776v-17.008h49.776v8.504h61.455v-26.135h-8.504v-49.776h8.504v-26.135h-61.455v8.504h-49.776v-17.008h-49.776v17.008h-49.776v-8.504h-49.776v8.504h-49.776v-8.504h-49.776v8.504h-49.776v-8.504h-49.776v8.504h-49.776v-8.504h-49.776v8.504h-49.776v-8.504h-49.776v8.504h-49.776v-8.504h-49.776v8.504h-49.776v-8.504h-49.776v8.504h-49.776v-17.008h-49.776v17.008h-49.776v-8.504h-61.455Z" vector-effect="non-scaling-stroke"/>
  <path id="right_outsideCutPath1" data-name="right_outsideCutPath" class="st1" d="M1411.805,1771.904h26.135v8.504h49.776v-8.504h26.135v-51.307h-8.504v-49.776h8.504v-49.776h-8.504v-49.776h8.504v-49.776h-8.504v-49.776h8.504v-51.307h-26.135v-8.504h-49.776v8.504h-26.135v51.307h8.504v49.776h-8.504v49.776h8.504v49.776h-8.504v49.776h8.504v49.776h-8.504v51.307Z" vector-effect="non-scaling-stroke"/>
  <rect class="st3" x="2661.097" y="1273.686" width="8.504" height="49.776" transform="translate(3963.923 -1366.774) rotate(90)"/>
  <rect class="st3" x="2661.097" y="1633.687" width="8.504" height="49.776" transform="translate(4323.924 -1006.773) rotate(90)"/>
  <rect class="st3" x="3457.519" y="1273.686" width="8.504" height="49.776" transform="translate(4760.345 -2163.197) rotate(90)"/>
  <rect class="st3" x="3457.519" y="1633.686" width="8.504" height="49.776" transform="translate(5120.345 -1803.197) rotate(90)"/>
  <rect class="st3" x="4481.551" y="1260.931" width="8.504" height="49.776" transform="translate(5771.622 -3199.985) rotate(90)"/>
  <rect class="st3" x="4481.551" y="1620.931" width="8.504" height="49.776" transform="translate(6131.623 -2839.984) rotate(90)"/>
  <rect class="st3" x="5277.973" y="1260.93" width="8.504" height="49.776" transform="translate(6568.043 -3996.407) rotate(90)"/>
  <rect class="st3" x="5277.973" y="1620.93" width="8.504" height="49.776" transform="translate(6928.043 -3636.407) rotate(90)"/>
  <path id="back_outsideCutPath2" data-name="back_outsideCutPath" class="st1" d="M6182.01,1181.64v26.135h8.504v49.776h-8.504v26.135h61.455v-8.504h49.776v17.008s49.776,0,49.776,0v-17.008h49.776v8.504h49.776v-8.504h49.776v8.504h49.776v-8.504h49.776v8.504h49.776v-8.504h49.776v8.504h49.776v-8.504h49.776v8.504h49.776v-8.504h49.776v8.504h49.776v-8.504h49.776v8.504h49.776v-8.504h49.776v17.008h49.776v-17.008h49.776v8.504h61.455v-26.135h-8.504v-49.776h8.504v-26.135h-61.455v8.504h-49.776v-17.008h-49.776v17.008h-49.776v-8.504h-49.776v8.504h-49.776v-8.504h-49.776v8.504h-49.776v-8.504h-49.776v8.504h-49.776v-8.504h-49.776v8.504h-49.776v-8.504h-49.776v8.504h-49.776v-8.504h-49.776v8.504h-49.776v-8.504h-49.776v8.504h-49.776v-17.008h-49.776v17.008h-49.776v-8.504h-61.455Z" vector-effect="non-scaling-stroke"/>
  <path id="path4253" class="st4" d="M4482.084,1243.43c-2.487,0-4.505-2.018-4.505-4.505s2.018-4.505,4.505-4.505,4.505,2.018,4.505,4.505-2.018,4.505-4.505,4.505Z"/>
  <path id="path4371" class="st4" d="M4561.373,1243.43c-2.487,0-4.505-2.018-4.505-4.505s2.018-4.505,4.505-4.505,4.505,2.018,4.505,4.505-2.018,4.505-4.505,4.505Z"/>
  <path id="path4355" class="st4" d="M4604.621,1099.268c-2.487,0-4.505-2.018-4.505-4.505s2.018-4.505,4.505-4.505,4.505,2.018,4.505,4.505-2.018,4.505-4.505,4.505Z"/>
  <path id="path4554" class="st4" d="M4467.667,1095.664c-2.487,0-4.505-2.018-4.505-4.505s2.018-4.505,4.505-4.505,4.505,2.018,4.505,4.505-2.018,4.505-4.505,4.505Z"/>
  <g>
    <path class="st7" d="M2042.33,92.12h3.697v12.687h.084c.588-1.051,1.512-1.975,2.646-2.604,1.092-.631,2.395-1.051,3.781-1.051,2.73,0,7.099,1.681,7.099,8.696v12.098h-3.697v-11.678c0-3.277-1.218-6.05-4.705-6.05-2.395,0-4.285,1.681-4.957,3.697-.21.504-.252,1.05-.252,1.764v12.267h-3.697v-29.825Z"/>
    <path class="st7" d="M2069.925,95.774v5.839h5.293v2.814h-5.293v10.965c0,2.52.714,3.948,2.772,3.948.966,0,1.68-.126,2.142-.252l.168,2.772c-.714.294-1.848.504-3.276.504-1.722,0-3.108-.546-3.991-1.554-1.05-1.093-1.428-2.899-1.428-5.293v-11.091h-3.15v-2.814h3.15v-4.872l3.613-.967Z"/>
    <path class="st7" d="M2083.827,95.774v5.839h5.293v2.814h-5.293v10.965c0,2.52.714,3.948,2.772,3.948.966,0,1.68-.126,2.142-.252l.168,2.772c-.714.294-1.848.504-3.276.504-1.722,0-3.108-.546-3.991-1.554-1.05-1.093-1.428-2.899-1.428-5.293v-11.091h-3.15v-2.814h3.15v-4.872l3.613-.967Z"/>
    <path class="st7" d="M2093.276,108.251c0-2.604-.084-4.705-.168-6.638h3.319l.168,3.487h.084c1.512-2.479,3.907-3.949,7.225-3.949,4.915,0,8.612,4.159,8.612,10.334,0,7.31-4.453,10.922-9.242,10.922-2.688,0-5.041-1.176-6.259-3.192h-.084v11.048h-3.655v-22.012ZM2096.93,113.67c0,.546.084,1.05.168,1.512.672,2.562,2.898,4.327,5.545,4.327,3.907,0,6.175-3.192,6.175-7.855,0-4.074-2.143-7.562-6.049-7.562-2.521,0-4.873,1.807-5.587,4.579-.126.462-.252,1.008-.252,1.513v3.486Z"/>
    <path class="st7" d="M2116.669,118.165c1.092.714,3.024,1.47,4.873,1.47,2.688,0,3.948-1.344,3.948-3.024,0-1.765-1.05-2.73-3.78-3.738-3.655-1.303-5.377-3.319-5.377-5.756,0-3.276,2.646-5.965,7.015-5.965,2.058,0,3.865.588,4.999,1.261l-.924,2.688c-.798-.504-2.269-1.177-4.159-1.177-2.185,0-3.403,1.261-3.403,2.772,0,1.681,1.218,2.437,3.865,3.445,3.529,1.344,5.335,3.108,5.335,6.133,0,3.57-2.772,6.091-7.604,6.091-2.226,0-4.285-.546-5.713-1.386l.924-2.814Z"/>
    <path class="st7" d="M2132.923,104.974c0-1.555,1.05-2.646,2.52-2.646s2.437,1.092,2.479,2.646c0,1.47-.966,2.604-2.521,2.604-1.47,0-2.478-1.135-2.478-2.604ZM2132.923,119.803c0-1.554,1.05-2.646,2.52-2.646s2.437,1.093,2.479,2.646c0,1.471-.966,2.604-2.521,2.604-1.47,0-2.478-1.134-2.478-2.604Z"/>
    <path class="st7" d="M2139.39,123.626l11.72-30.456h2.856l-11.762,30.456h-2.814Z"/>
    <path class="st7" d="M2153.795,123.626l11.72-30.456h2.856l-11.762,30.456h-2.814Z"/>
    <path class="st7" d="M2171.688,121.945v-17.518h-2.857v-2.814h2.857v-.966c0-2.856.63-5.461,2.352-7.1,1.386-1.344,3.235-1.89,4.957-1.89,1.302,0,2.437.294,3.15.588l-.504,2.856c-.546-.252-1.302-.462-2.353-.462-3.15,0-3.949,2.772-3.949,5.881v1.092h4.915v2.814h-4.915v17.518h-3.654Z"/>
    <path class="st7" d="M2183.573,107.957c0-2.395-.042-4.453-.168-6.344h3.235l.126,3.991h.168c.924-2.73,3.15-4.453,5.629-4.453.42,0,.714.042,1.05.126v3.487c-.378-.084-.756-.126-1.26-.126-2.604,0-4.453,1.974-4.957,4.746-.084.505-.168,1.093-.168,1.723v10.838h-3.655v-13.988Z"/>
    <path class="st7" d="M2194.199,119.761c0-1.554,1.05-2.646,2.521-2.646s2.478,1.093,2.478,2.646c0,1.513-.966,2.646-2.521,2.646-1.47,0-2.478-1.134-2.478-2.646Z"/>
    <path class="st7" d="M2203.774,107.116c0-2.1-.042-3.822-.168-5.503h3.235l.168,3.277h.126c1.134-1.933,3.024-3.739,6.385-3.739,2.772,0,4.873,1.681,5.755,4.075h.084c.63-1.135,1.428-2.017,2.269-2.646,1.218-.925,2.562-1.429,4.495-1.429,2.688,0,6.679,1.765,6.679,8.822v11.972h-3.613v-11.51c0-3.907-1.428-6.26-4.411-6.26-2.101,0-3.739,1.555-4.369,3.361-.168.504-.294,1.176-.294,1.848v12.561h-3.612v-12.183c0-3.234-1.428-5.587-4.243-5.587-2.311,0-3.991,1.849-4.579,3.697-.21.546-.294,1.176-.294,1.806v12.267h-3.613v-14.829Z"/>
    <path class="st7" d="M2250.06,121.945l-.294-2.562h-.126c-1.134,1.597-3.318,3.024-6.217,3.024-4.117,0-6.217-2.898-6.217-5.839,0-4.915,4.369-7.604,12.224-7.562v-.42c0-1.681-.462-4.705-4.621-4.705-1.891,0-3.865.589-5.293,1.513l-.84-2.437c1.68-1.092,4.117-1.807,6.679-1.807,6.217,0,7.729,4.243,7.729,8.317v7.604c0,1.765.084,3.486.336,4.873h-3.36ZM2249.514,111.569c-4.033-.084-8.611.63-8.611,4.579,0,2.395,1.596,3.528,3.486,3.528,2.646,0,4.327-1.68,4.915-3.402.126-.378.21-.798.21-1.177v-3.528Z"/>
    <path class="st7" d="M2262.701,110.939h.084c.504-.714,1.218-1.597,1.806-2.311l5.965-7.016h4.453l-7.855,8.36,8.948,11.972h-4.495l-7.016-9.746-1.89,2.101v7.646h-3.655v-29.825h3.655v18.819Z"/>
    <path class="st7" d="M2280.802,112.451c.084,4.999,3.276,7.058,6.973,7.058,2.646,0,4.243-.462,5.629-1.05l.63,2.646c-1.302.588-3.529,1.26-6.763,1.26-6.259,0-9.998-4.116-9.998-10.25s3.613-10.964,9.536-10.964c6.637,0,8.402,5.839,8.402,9.578,0,.756-.084,1.344-.126,1.722h-14.282ZM2291.64,109.805c.042-2.352-.966-6.007-5.125-6.007-3.739,0-5.377,3.445-5.671,6.007h10.796Z"/>
    <path class="st7" d="M2299.785,107.957c0-2.395-.042-4.453-.168-6.344h3.235l.126,3.991h.168c.924-2.73,3.15-4.453,5.629-4.453.42,0,.714.042,1.05.126v3.487c-.378-.084-.756-.126-1.26-.126-2.604,0-4.453,1.974-4.957,4.746-.084.505-.168,1.093-.168,1.723v10.838h-3.655v-13.988Z"/>
    <path class="st7" d="M2327.592,121.189c-.966.504-3.108,1.176-5.839,1.176-6.133,0-10.124-4.158-10.124-10.376,0-6.259,4.285-10.796,10.922-10.796,2.185,0,4.117.546,5.125,1.051l-.84,2.856c-.882-.504-2.268-.967-4.285-.967-4.663,0-7.183,3.445-7.183,7.688,0,4.705,3.024,7.604,7.057,7.604,2.101,0,3.487-.546,4.537-1.008l.63,2.772Z"/>
    <path class="st7" d="M2343.174,121.945l-.294-2.562h-.126c-1.134,1.597-3.318,3.024-6.217,3.024-4.117,0-6.217-2.898-6.217-5.839,0-4.915,4.369-7.604,12.224-7.562v-.42c0-1.681-.462-4.705-4.621-4.705-1.891,0-3.865.589-5.293,1.513l-.84-2.437c1.68-1.092,4.117-1.807,6.679-1.807,6.217,0,7.729,4.243,7.729,8.317v7.604c0,1.765.084,3.486.336,4.873h-3.36ZM2342.627,111.569c-4.033-.084-8.611.63-8.611,4.579,0,2.395,1.596,3.528,3.486,3.528,2.646,0,4.327-1.68,4.915-3.402.126-.378.21-.798.21-1.177v-3.528Z"/>
    <path class="st7" d="M2351.655,118.165c1.092.714,3.024,1.47,4.873,1.47,2.688,0,3.948-1.344,3.948-3.024,0-1.765-1.05-2.73-3.78-3.738-3.655-1.303-5.377-3.319-5.377-5.756,0-3.276,2.646-5.965,7.015-5.965,2.058,0,3.865.588,5,1.261l-.925,2.688c-.798-.504-2.269-1.177-4.159-1.177-2.185,0-3.403,1.261-3.403,2.772,0,1.681,1.218,2.437,3.865,3.445,3.529,1.344,5.335,3.108,5.335,6.133,0,3.57-2.773,6.091-7.604,6.091-2.226,0-4.285-.546-5.713-1.386l.924-2.814Z"/>
    <path class="st7" d="M2370.849,112.451c.084,4.999,3.276,7.058,6.974,7.058,2.646,0,4.242-.462,5.629-1.05l.63,2.646c-1.302.588-3.528,1.26-6.763,1.26-6.26,0-9.998-4.116-9.998-10.25s3.612-10.964,9.535-10.964c6.638,0,8.402,5.839,8.402,9.578,0,.756-.085,1.344-.127,1.722h-14.282ZM2381.687,109.805c.042-2.352-.966-6.007-5.125-6.007-3.738,0-5.377,3.445-5.671,6.007h10.796Z"/>
    <path class="st7" d="M2388.447,119.761c0-1.554,1.05-2.646,2.521-2.646s2.479,1.093,2.479,2.646c0,1.513-.966,2.646-2.521,2.646-1.471,0-2.479-1.134-2.479-2.646Z"/>
    <path class="st7" d="M2412.515,121.189c-.967.504-3.108,1.176-5.839,1.176-6.134,0-10.124-4.158-10.124-10.376,0-6.259,4.284-10.796,10.922-10.796,2.185,0,4.116.546,5.125,1.051l-.841,2.856c-.882-.504-2.268-.967-4.284-.967-4.663,0-7.184,3.445-7.184,7.688,0,4.705,3.024,7.604,7.058,7.604,2.101,0,3.486-.546,4.537-1.008l.63,2.772Z"/>
    <path class="st7" d="M2434.986,111.611c0,7.52-5.209,10.796-10.124,10.796-5.503,0-9.746-4.032-9.746-10.46,0-6.805,4.453-10.796,10.082-10.796,5.839,0,9.788,4.243,9.788,10.46ZM2418.855,111.821c0,4.453,2.562,7.813,6.175,7.813,3.528,0,6.175-3.318,6.175-7.897,0-3.444-1.722-7.813-6.091-7.813s-6.259,4.033-6.259,7.897Z"/>
    <path class="st7" d="M2439.644,107.116c0-2.1-.042-3.822-.168-5.503h3.235l.168,3.277h.126c1.134-1.933,3.024-3.739,6.385-3.739,2.772,0,4.873,1.681,5.755,4.075h.084c.63-1.135,1.429-2.017,2.269-2.646,1.218-.925,2.562-1.429,4.495-1.429,2.688,0,6.679,1.765,6.679,8.822v11.972h-3.612v-11.51c0-3.907-1.429-6.26-4.411-6.26-2.101,0-3.738,1.555-4.368,3.361-.168.504-.295,1.176-.295,1.848v12.561h-3.612v-12.183c0-3.234-1.428-5.587-4.242-5.587-2.311,0-3.991,1.849-4.579,3.697-.21.546-.294,1.176-.294,1.806v12.267h-3.613v-14.829Z"/>
    <path class="st7" d="M2471.564,123.626l11.72-30.456h2.856l-11.762,30.456h-2.814Z"/>
    <path class="st7" d="M2489.919,121.945l1.092-8.233h-3.444v-2.479h3.822l.799-6.091h-3.613v-2.479h3.991l1.092-8.023h2.437l-1.05,8.023h4.368l1.093-8.023h2.479l-1.051,8.023h3.444v2.479h-3.822l-.756,6.091h3.612v2.479h-3.99l-1.093,8.233h-2.521l1.093-8.233h-4.369l-1.092,8.233h-2.521ZM2498.278,111.233l.798-6.091h-4.369l-.798,6.091h4.369Z"/>
    <path class="st7" d="M2506.843,123.626l11.72-30.456h2.856l-11.762,30.456h-2.814Z"/>
    <path class="st7" d="M2524.189,121.945c.084-1.387.168-3.444.168-5.251v-24.574h3.654v12.771h.084c1.303-2.269,3.655-3.739,6.932-3.739,5.041,0,8.611,4.201,8.569,10.376,0,7.268-4.579,10.88-9.115,10.88-2.94,0-5.293-1.134-6.806-3.822h-.126l-.168,3.36h-3.192ZM2528.011,113.796c0,.462.084.924.168,1.344.715,2.562,2.856,4.327,5.545,4.327,3.865,0,6.176-3.15,6.176-7.813,0-4.074-2.101-7.562-6.05-7.562-2.521,0-4.872,1.723-5.629,4.537-.084.42-.21.924-.21,1.513v3.654Z"/>
    <path class="st7" d="M2559.512,121.945l-.294-2.562h-.126c-1.135,1.597-3.318,3.024-6.217,3.024-4.117,0-6.218-2.898-6.218-5.839,0-4.915,4.369-7.604,12.225-7.562v-.42c0-1.681-.462-4.705-4.621-4.705-1.891,0-3.864.589-5.293,1.513l-.84-2.437c1.68-1.092,4.116-1.807,6.679-1.807,6.218,0,7.729,4.243,7.729,8.317v7.604c0,1.765.084,3.486.336,4.873h-3.36ZM2558.966,111.569c-4.033-.084-8.611.63-8.611,4.579,0,2.395,1.596,3.528,3.486,3.528,2.646,0,4.327-1.68,4.915-3.402.126-.378.21-.798.21-1.177v-3.528Z"/>
    <path class="st7" d="M2567.994,118.165c1.093.714,3.024,1.47,4.873,1.47,2.688,0,3.948-1.344,3.948-3.024,0-1.765-1.05-2.73-3.78-3.738-3.654-1.303-5.377-3.319-5.377-5.756,0-3.276,2.646-5.965,7.016-5.965,2.058,0,3.864.588,4.999,1.261l-.925,2.688c-.798-.504-2.269-1.177-4.158-1.177-2.185,0-3.403,1.261-3.403,2.772,0,1.681,1.219,2.437,3.865,3.445,3.528,1.344,5.335,3.108,5.335,6.133,0,3.57-2.772,6.091-7.604,6.091-2.227,0-4.285-.546-5.713-1.386l.924-2.814Z"/>
    <path class="st7" d="M2589.247,95.9c.042,1.261-.882,2.269-2.353,2.269-1.302,0-2.227-1.008-2.227-2.269,0-1.302.967-2.311,2.311-2.311,1.387,0,2.269,1.009,2.269,2.311ZM2585.13,121.945v-20.332h3.697v20.332h-3.697Z"/>
    <path class="st7" d="M2609.451,121.189c-.967.504-3.109,1.176-5.84,1.176-6.133,0-10.123-4.158-10.123-10.376,0-6.259,4.284-10.796,10.922-10.796,2.184,0,4.116.546,5.125,1.051l-.841,2.856c-.882-.504-2.269-.967-4.284-.967-4.663,0-7.184,3.445-7.184,7.688,0,4.705,3.024,7.604,7.058,7.604,2.1,0,3.486-.546,4.536-1.008l.631,2.772Z"/>
    <path class="st7" d="M2613.605,121.945c.084-1.387.168-3.444.168-5.251v-24.574h3.655v12.771h.084c1.302-2.269,3.654-3.739,6.931-3.739,5.041,0,8.611,4.201,8.569,10.376,0,7.268-4.578,10.88-9.115,10.88-2.94,0-5.293-1.134-6.806-3.822h-.126l-.168,3.36h-3.192ZM2617.428,113.796c0,.462.084.924.168,1.344.714,2.562,2.856,4.327,5.545,4.327,3.864,0,6.175-3.15,6.175-7.813,0-4.074-2.101-7.562-6.049-7.562-2.521,0-4.873,1.723-5.629,4.537-.084.42-.21.924-.21,1.513v3.654Z"/>
    <path class="st7" d="M2656.07,111.611c0,7.52-5.209,10.796-10.124,10.796-5.503,0-9.745-4.032-9.745-10.46,0-6.805,4.452-10.796,10.081-10.796,5.84,0,9.788,4.243,9.788,10.46ZM2639.939,111.821c0,4.453,2.562,7.813,6.175,7.813,3.529,0,6.176-3.318,6.176-7.897,0-3.444-1.723-7.813-6.092-7.813s-6.259,4.033-6.259,7.897Z"/>
    <path class="st7" d="M2661.864,101.613l2.898,4.369c.756,1.134,1.386,2.185,2.059,3.318h.126c.672-1.218,1.344-2.269,2.016-3.36l2.856-4.327h3.991l-6.932,9.83,7.142,10.502h-4.201l-2.982-4.579c-.798-1.176-1.47-2.311-2.184-3.528h-.084c-.673,1.218-1.387,2.311-2.143,3.528l-2.94,4.579h-4.075l7.226-10.376-6.89-9.956h4.117Z"/>
    <path class="st7" d="M2042.33,209.051c0-2.604-.084-4.705-.168-6.638h3.319l.168,3.487h.084c1.512-2.479,3.907-3.949,7.225-3.949,4.915,0,8.612,4.159,8.612,10.334,0,7.31-4.453,10.922-9.242,10.922-2.688,0-5.041-1.176-6.259-3.192h-.084v11.048h-3.655v-22.012ZM2045.985,214.47c0,.546.084,1.05.168,1.512.672,2.562,2.898,4.327,5.545,4.327,3.907,0,6.175-3.192,6.175-7.855,0-4.074-2.143-7.562-6.049-7.562-2.521,0-4.873,1.807-5.587,4.579-.126.462-.252,1.008-.252,1.513v3.486Z"/>
    <path class="st7" d="M2077.486,222.745l-.294-2.562h-.126c-1.134,1.597-3.318,3.024-6.217,3.024-4.117,0-6.217-2.898-6.217-5.839,0-4.915,4.369-7.604,12.224-7.562v-.42c0-1.681-.462-4.705-4.621-4.705-1.891,0-3.865.588-5.293,1.513l-.84-2.437c1.68-1.092,4.117-1.807,6.679-1.807,6.217,0,7.729,4.243,7.729,8.317v7.604c0,1.765.084,3.486.336,4.873h-3.36ZM2076.94,212.369c-4.033-.084-8.611.63-8.611,4.579,0,2.395,1.596,3.528,3.486,3.528,2.646,0,4.327-1.68,4.915-3.402.126-.378.21-.798.21-1.177v-3.528Z"/>
    <path class="st7" d="M2086.471,208.757c0-2.395-.042-4.453-.168-6.344h3.235l.126,3.991h.168c.924-2.73,3.15-4.453,5.629-4.453.42,0,.714.042,1.05.126v3.487c-.378-.084-.756-.126-1.26-.126-2.604,0-4.453,1.974-4.957,4.746-.084.505-.168,1.093-.168,1.723v10.838h-3.655v-13.988Z"/>
    <path class="st7" d="M2105.666,196.574v5.839h5.293v2.814h-5.293v10.965c0,2.521.714,3.948,2.772,3.948.966,0,1.68-.126,2.142-.252l.168,2.772c-.714.294-1.848.504-3.276.504-1.722,0-3.108-.546-3.991-1.554-1.05-1.093-1.428-2.898-1.428-5.293v-11.091h-3.15v-2.814h3.15v-4.872l3.613-.967Z"/>
    <path class="st7" d="M2119.231,196.7c.042,1.261-.882,2.269-2.352,2.269-1.302,0-2.227-1.008-2.227-2.269,0-1.302.966-2.311,2.311-2.311,1.386,0,2.268,1.009,2.268,2.311ZM2115.114,222.745v-20.332h3.697v20.332h-3.697Z"/>
    <path class="st7" d="M2139.435,221.989c-.966.504-3.108,1.176-5.839,1.176-6.133,0-10.124-4.158-10.124-10.376,0-6.259,4.285-10.796,10.922-10.796,2.185,0,4.117.546,5.125,1.051l-.84,2.856c-.882-.504-2.268-.967-4.285-.967-4.663,0-7.183,3.445-7.183,7.688,0,4.705,3.024,7.604,7.057,7.604,2.101,0,3.487-.546,4.537-1.008l.63,2.772Z"/>
    <path class="st7" d="M2147.875,196.7c.042,1.261-.882,2.269-2.352,2.269-1.302,0-2.227-1.008-2.227-2.269,0-1.302.966-2.311,2.311-2.311,1.386,0,2.268,1.009,2.268,2.311ZM2143.758,222.745v-20.332h3.697v20.332h-3.697Z"/>
    <path class="st7" d="M2153.586,209.051c0-2.604-.084-4.705-.168-6.638h3.319l.168,3.487h.084c1.512-2.479,3.907-3.949,7.225-3.949,4.915,0,8.612,4.159,8.612,10.334,0,7.31-4.453,10.922-9.242,10.922-2.688,0-5.041-1.176-6.259-3.192h-.084v11.048h-3.655v-22.012ZM2157.24,214.47c0,.546.084,1.05.168,1.512.672,2.562,2.898,4.327,5.545,4.327,3.907,0,6.175-3.192,6.175-7.855,0-4.074-2.143-7.562-6.049-7.562-2.521,0-4.873,1.807-5.587,4.579-.126.462-.252,1.008-.252,1.513v3.486Z"/>
    <path class="st7" d="M2188.741,222.745l-.294-2.562h-.126c-1.134,1.597-3.318,3.024-6.217,3.024-4.117,0-6.217-2.898-6.217-5.839,0-4.915,4.369-7.604,12.224-7.562v-.42c0-1.681-.462-4.705-4.621-4.705-1.891,0-3.865.588-5.293,1.513l-.84-2.437c1.68-1.092,4.117-1.807,6.679-1.807,6.217,0,7.729,4.243,7.729,8.317v7.604c0,1.765.084,3.486.336,4.873h-3.36ZM2188.195,212.369c-4.033-.084-8.611.63-8.611,4.579,0,2.395,1.596,3.528,3.486,3.528,2.646,0,4.327-1.68,4.915-3.402.126-.378.21-.798.21-1.177v-3.528Z"/>
    <path class="st7" d="M2197.727,207.916c0-2.1-.042-3.822-.168-5.503h3.277l.21,3.361h.084c1.008-1.933,3.36-3.823,6.721-3.823,2.814,0,7.183,1.681,7.183,8.653v12.141h-3.697v-11.72c0-3.277-1.218-6.008-4.705-6.008-2.437,0-4.327,1.723-4.957,3.781-.168.462-.252,1.092-.252,1.722v12.225h-3.697v-14.829Z"/>
    <path class="st7" d="M2225.322,196.574v5.839h5.293v2.814h-5.293v10.965c0,2.521.714,3.948,2.772,3.948.966,0,1.68-.126,2.142-.252l.168,2.772c-.714.294-1.848.504-3.276.504-1.722,0-3.108-.546-3.991-1.554-1.05-1.093-1.428-2.898-1.428-5.293v-11.091h-3.15v-2.814h3.15v-4.872l3.613-.967Z"/>
    <path class="st7" d="M2243.674,207.916c0-2.1-.042-3.822-.168-5.503h3.235l.168,3.277h.126c1.134-1.933,3.024-3.739,6.385-3.739,2.772,0,4.873,1.681,5.755,4.075h.084c.63-1.135,1.428-2.017,2.269-2.646,1.218-.925,2.562-1.429,4.495-1.429,2.688,0,6.679,1.765,6.679,8.822v11.972h-3.613v-11.51c0-3.907-1.428-6.26-4.411-6.26-2.101,0-3.739,1.555-4.369,3.361-.168.504-.294,1.176-.294,1.848v12.561h-3.612v-12.183c0-3.234-1.428-5.587-4.243-5.587-2.311,0-3.991,1.849-4.579,3.697-.21.546-.294,1.176-.294,1.806v12.267h-3.613v-14.829Z"/>
    <path class="st7" d="M2289.96,222.745l-.294-2.562h-.126c-1.134,1.597-3.318,3.024-6.217,3.024-4.117,0-6.217-2.898-6.217-5.839,0-4.915,4.369-7.604,12.224-7.562v-.42c0-1.681-.462-4.705-4.621-4.705-1.891,0-3.865.588-5.293,1.513l-.84-2.437c1.68-1.092,4.117-1.807,6.679-1.807,6.217,0,7.729,4.243,7.729,8.317v7.604c0,1.765.084,3.486.336,4.873h-3.36ZM2289.414,212.369c-4.033-.084-8.611.63-8.611,4.579,0,2.395,1.596,3.528,3.486,3.528,2.646,0,4.327-1.68,4.915-3.402.126-.378.21-.798.21-1.177v-3.528Z"/>
    <path class="st7" d="M2303.063,196.7c.042,1.261-.882,2.269-2.352,2.269-1.302,0-2.227-1.008-2.227-2.269,0-1.302.966-2.311,2.311-2.311,1.386,0,2.268,1.009,2.268,2.311ZM2298.946,222.745v-20.332h3.697v20.332h-3.697Z"/>
    <path class="st7" d="M2308.774,207.916c0-2.1-.042-3.822-.168-5.503h3.277l.21,3.361h.084c1.008-1.933,3.36-3.823,6.721-3.823,2.814,0,7.183,1.681,7.183,8.653v12.141h-3.697v-11.72c0-3.277-1.218-6.008-4.705-6.008-2.437,0-4.327,1.723-4.957,3.781-.168.462-.252,1.092-.252,1.722v12.225h-3.697v-14.829Z"/>
    <path class="st7" d="M2340.819,222.745c.084-1.387.168-3.444.168-5.251v-24.574h3.655v12.771h.084c1.302-2.269,3.655-3.739,6.931-3.739,5.041,0,8.612,4.201,8.57,10.376,0,7.268-4.579,10.88-9.116,10.88-2.94,0-5.293-1.134-6.805-3.822h-.126l-.168,3.36h-3.193ZM2344.642,214.596c0,.462.084.924.168,1.344.714,2.562,2.856,4.327,5.545,4.327,3.865,0,6.175-3.15,6.175-7.813,0-4.074-2.101-7.562-6.049-7.562-2.521,0-4.873,1.723-5.629,4.537-.084.42-.21.924-.21,1.513v3.654Z"/>
    <path class="st7" d="M2383.284,212.411c0,7.52-5.209,10.796-10.124,10.796-5.503,0-9.746-4.032-9.746-10.46,0-6.805,4.453-10.796,10.082-10.796,5.839,0,9.788,4.243,9.788,10.46ZM2367.153,212.621c0,4.453,2.562,7.813,6.175,7.813,3.528,0,6.175-3.318,6.175-7.897,0-3.444-1.722-7.813-6.091-7.813s-6.259,4.033-6.259,7.897Z"/>
    <path class="st7" d="M2389.077,202.413l2.898,4.369c.756,1.134,1.387,2.185,2.059,3.318h.126c.672-1.218,1.344-2.269,2.017-3.36l2.856-4.327h3.99l-6.931,9.83,7.141,10.502h-4.2l-2.982-4.579c-.799-1.176-1.471-2.311-2.185-3.528h-.084c-.672,1.218-1.387,2.311-2.143,3.528l-2.94,4.579h-4.075l7.226-10.376-6.89-9.956h4.117Z"/>
    <path class="st7" d="M2414.528,222.745v-2.269l2.898-2.814c6.974-6.637,10.124-10.166,10.166-14.282,0-2.772-1.345-5.335-5.419-5.335-2.479,0-4.537,1.26-5.797,2.311l-1.177-2.604c1.891-1.597,4.579-2.772,7.729-2.772,5.881,0,8.359,4.032,8.359,7.939,0,5.041-3.654,9.115-9.409,14.66l-2.185,2.017v.084h12.266v3.066h-17.433Z"/>
    <path class="st7" d="M2452.373,198.549h-10.418l-1.051,7.016c.63-.084,1.219-.168,2.227-.168,2.101,0,4.201.462,5.881,1.47,2.143,1.219,3.907,3.57,3.907,7.016,0,5.335-4.243,9.325-10.166,9.325-2.982,0-5.503-.84-6.806-1.68l.925-2.814c1.134.672,3.36,1.512,5.839,1.512,3.486,0,6.469-2.269,6.469-5.923-.042-3.528-2.395-6.049-7.855-6.049-1.554,0-2.772.168-3.78.294l1.765-13.106h13.064v3.108Z"/>
    <path class="st7" d="M2475.766,208.799c0,9.283-3.445,14.408-9.494,14.408-5.335,0-8.947-4.999-9.031-14.03,0-9.157,3.948-14.198,9.493-14.198,5.755,0,9.032,5.125,9.032,13.82ZM2460.937,209.219c0,7.1,2.185,11.132,5.545,11.132,3.781,0,5.587-4.411,5.587-11.384,0-6.722-1.722-11.132-5.545-11.132-3.234,0-5.587,3.948-5.587,11.384Z"/>
    <path class="st7" d="M2482.063,202.413l2.898,4.369c.756,1.134,1.386,2.185,2.058,3.318h.126c.673-1.218,1.345-2.269,2.017-3.36l2.856-4.327h3.991l-6.932,9.83,7.142,10.502h-4.201l-2.982-4.579c-.798-1.176-1.47-2.311-2.185-3.528h-.084c-.672,1.218-1.386,2.311-2.143,3.528l-2.94,4.579h-4.074l7.226-10.376-6.89-9.956h4.117Z"/>
    <path class="st7" d="M2499.492,218.502c1.051.673,3.487,1.723,6.05,1.723,4.746,0,6.217-3.024,6.175-5.293-.042-3.822-3.486-5.461-7.058-5.461h-2.059v-2.772h2.059c2.688,0,6.091-1.386,6.091-4.621,0-2.185-1.386-4.116-4.788-4.116-2.185,0-4.285.966-5.461,1.806l-.967-2.688c1.429-1.05,4.201-2.1,7.142-2.1,5.377,0,7.813,3.192,7.813,6.511,0,2.814-1.681,5.209-5.041,6.427v.085c3.36.672,6.091,3.192,6.091,7.015,0,4.369-3.402,8.191-9.955,8.191-3.067,0-5.756-.966-7.1-1.849l1.008-2.856Z"/>
    <path class="st7" d="M2537.882,195.44v2.437l-11.888,24.868h-3.823l11.847-24.154v-.084h-13.358v-3.066h17.223Z"/>
    <path class="st7" d="M2559.428,195.44v2.437l-11.889,24.868h-3.822l11.846-24.154v-.084h-13.358v-3.066h17.224Z"/>
    <path class="st7" d="M2566.145,202.413l2.898,4.369c.756,1.134,1.386,2.185,2.058,3.318h.126c.673-1.218,1.345-2.269,2.017-3.36l2.856-4.327h3.991l-6.932,9.83,7.142,10.502h-4.201l-2.982-4.579c-.798-1.176-1.47-2.311-2.185-3.528h-.084c-.672,1.218-1.386,2.311-2.143,3.528l-2.94,4.579h-4.074l7.226-10.376-6.89-9.956h4.117Z"/>
    <path class="st7" d="M2594.118,222.745v-7.436h-12.687v-2.437l12.183-17.433h3.99v16.971h3.823v2.898h-3.823v7.436h-3.486ZM2594.118,212.411v-9.115c0-1.429.042-2.856.126-4.285h-.126c-.84,1.597-1.512,2.772-2.269,4.033l-6.679,9.283v.084h8.947Z"/>
    <path class="st7" d="M2604.237,222.745v-2.269l2.898-2.814c6.973-6.637,10.124-10.166,10.166-14.282,0-2.772-1.345-5.335-5.419-5.335-2.479,0-4.537,1.26-5.798,2.311l-1.176-2.604c1.891-1.597,4.579-2.772,7.729-2.772,5.881,0,8.359,4.032,8.359,7.939,0,5.041-3.654,9.115-9.41,14.66l-2.184,2.017v.084h12.266v3.066h-17.433Z"/>
    <path class="st7" d="M2643.885,193.592c-3.066,4.117-5.293,9.578-5.293,17.182,0,7.477,2.311,12.854,5.293,17.055h-2.898c-2.646-3.486-5.503-8.863-5.503-17.055.042-8.276,2.856-13.653,5.503-17.182h2.898Z"/>
    <path class="st7" d="M2665.349,192.92v24.574c0,1.807.042,3.864.168,5.251h-3.319l-.168-3.528h-.084c-1.134,2.269-3.612,3.99-6.931,3.99-4.915,0-8.695-4.158-8.695-10.334-.042-6.763,4.158-10.922,9.115-10.922,3.108,0,5.209,1.471,6.133,3.108h.084v-12.14h3.697ZM2661.652,210.689c0-.463-.042-1.093-.168-1.555-.546-2.353-2.562-4.285-5.335-4.285-3.822,0-6.091,3.361-6.091,7.855,0,4.117,2.017,7.52,6.007,7.52,2.479,0,4.747-1.639,5.419-4.411.126-.504.168-1.008.168-1.596v-3.528Z"/>
    <path class="st7" d="M2675.595,196.7c.042,1.261-.883,2.269-2.353,2.269-1.303,0-2.227-1.008-2.227-2.269,0-1.302.966-2.311,2.311-2.311,1.386,0,2.269,1.009,2.269,2.311ZM2671.478,222.745v-20.332h3.697v20.332h-3.697Z"/>
    <path class="st7" d="M2681.305,207.916c0-2.1-.042-3.822-.168-5.503h3.234l.168,3.277h.126c1.135-1.933,3.025-3.739,6.386-3.739,2.772,0,4.873,1.681,5.755,4.075h.084c.63-1.135,1.428-2.017,2.269-2.646,1.218-.925,2.562-1.429,4.494-1.429,2.688,0,6.68,1.765,6.68,8.822v11.972h-3.612v-11.51c0-3.907-1.429-6.26-4.411-6.26-2.101,0-3.738,1.555-4.369,3.361-.168.504-.294,1.176-.294,1.848v12.561h-3.612v-12.183c0-3.234-1.429-5.587-4.243-5.587-2.311,0-3.99,1.849-4.578,3.697-.21.546-.295,1.176-.295,1.806v12.267h-3.612v-14.829Z"/>
    <path class="st7" d="M2718.392,213.251c.084,4.999,3.276,7.058,6.974,7.058,2.646,0,4.242-.462,5.629-1.05l.63,2.646c-1.303.588-3.528,1.26-6.764,1.26-6.259,0-9.997-4.116-9.997-10.25s3.612-10.964,9.535-10.964c6.638,0,8.401,5.839,8.401,9.578,0,.756-.084,1.344-.126,1.722h-14.282ZM2729.23,210.604c.042-2.352-.966-6.007-5.125-6.007-3.738,0-5.377,3.445-5.671,6.007h10.796Z"/>
    <path class="st7" d="M2737.376,207.916c0-2.1-.042-3.822-.168-5.503h3.276l.21,3.361h.084c1.009-1.933,3.361-3.823,6.722-3.823,2.814,0,7.184,1.681,7.184,8.653v12.141h-3.697v-11.72c0-3.277-1.218-6.008-4.705-6.008-2.436,0-4.326,1.723-4.956,3.781-.168.462-.252,1.092-.252,1.722v12.225h-3.697v-14.829Z"/>
    <path class="st7" d="M2760.181,218.965c1.092.714,3.024,1.47,4.873,1.47,2.688,0,3.948-1.344,3.948-3.024,0-1.765-1.05-2.73-3.78-3.738-3.655-1.303-5.377-3.319-5.377-5.756,0-3.276,2.646-5.965,7.015-5.965,2.059,0,3.865.588,4.999,1.261l-.924,2.688c-.798-.504-2.269-1.177-4.159-1.177-2.184,0-3.402,1.261-3.402,2.772,0,1.681,1.219,2.437,3.865,3.445,3.528,1.344,5.335,3.108,5.335,6.133,0,3.57-2.772,6.091-7.604,6.091-2.227,0-4.285-.546-5.713-1.386l.924-2.814Z"/>
    <path class="st7" d="M2781.434,196.7c.042,1.261-.883,2.269-2.353,2.269-1.303,0-2.227-1.008-2.227-2.269,0-1.302.966-2.311,2.311-2.311,1.386,0,2.269,1.009,2.269,2.311ZM2777.317,222.745v-20.332h3.697v20.332h-3.697Z"/>
    <path class="st7" d="M2805.544,212.411c0,7.52-5.209,10.796-10.124,10.796-5.503,0-9.745-4.032-9.745-10.46,0-6.805,4.452-10.796,10.081-10.796,5.84,0,9.788,4.243,9.788,10.46ZM2789.413,212.621c0,4.453,2.562,7.813,6.175,7.813,3.529,0,6.176-3.318,6.176-7.897,0-3.444-1.723-7.813-6.092-7.813s-6.259,4.033-6.259,7.897Z"/>
    <path class="st7" d="M2810.202,207.916c0-2.1-.042-3.822-.168-5.503h3.276l.21,3.361h.084c1.009-1.933,3.361-3.823,6.722-3.823,2.814,0,7.184,1.681,7.184,8.653v12.141h-3.697v-11.72c0-3.277-1.218-6.008-4.705-6.008-2.436,0-4.326,1.723-4.956,3.781-.168.462-.252,1.092-.252,1.722v12.225h-3.697v-14.829Z"/>
    <path class="st7" d="M2833.008,218.965c1.092.714,3.024,1.47,4.873,1.47,2.688,0,3.948-1.344,3.948-3.024,0-1.765-1.05-2.73-3.78-3.738-3.655-1.303-5.377-3.319-5.377-5.756,0-3.276,2.646-5.965,7.015-5.965,2.059,0,3.865.588,4.999,1.261l-.924,2.688c-.798-.504-2.269-1.177-4.159-1.177-2.184,0-3.402,1.261-3.402,2.772,0,1.681,1.219,2.437,3.865,3.445,3.528,1.344,5.335,3.108,5.335,6.133,0,3.57-2.772,6.091-7.604,6.091-2.227,0-4.285-.546-5.713-1.386l.924-2.814Z"/>
    <path class="st7" d="M2863.165,196.7c.042,1.261-.883,2.269-2.353,2.269-1.303,0-2.227-1.008-2.227-2.269,0-1.302.966-2.311,2.311-2.311,1.386,0,2.269,1.009,2.269,2.311ZM2859.048,222.745v-20.332h3.697v20.332h-3.697Z"/>
    <path class="st7" d="M2868.876,207.916c0-2.1-.042-3.822-.168-5.503h3.276l.21,3.361h.084c1.009-1.933,3.361-3.823,6.722-3.823,2.814,0,7.184,1.681,7.184,8.653v12.141h-3.697v-11.72c0-3.277-1.218-6.008-4.705-6.008-2.436,0-4.326,1.723-4.956,3.781-.168.462-.252,1.092-.252,1.722v12.225h-3.697v-14.829Z"/>
    <path class="st7" d="M2896.47,196.574v5.839h5.293v2.814h-5.293v10.965c0,2.521.714,3.948,2.772,3.948.966,0,1.68-.126,2.143-.252l.168,2.772c-.715.294-1.849.504-3.277.504-1.722,0-3.108-.546-3.99-1.554-1.05-1.093-1.429-2.898-1.429-5.293v-11.091h-3.15v-2.814h3.15v-4.872l3.613-.967Z"/>
    <path class="st7" d="M2907.725,213.251c.084,4.999,3.276,7.058,6.973,7.058,2.646,0,4.243-.462,5.63-1.05l.63,2.646c-1.303.588-3.528,1.26-6.764,1.26-6.259,0-9.997-4.116-9.997-10.25s3.612-10.964,9.535-10.964c6.638,0,8.401,5.839,8.401,9.578,0,.756-.084,1.344-.126,1.722h-14.282ZM2918.563,210.604c.042-2.352-.966-6.007-5.125-6.007-3.738,0-5.377,3.445-5.671,6.007h10.796ZM2919.445,193.634l-5.125,6.007h-2.646l3.697-6.007h4.074Z"/>
    <path class="st7" d="M2926.709,208.757c0-2.395-.042-4.453-.168-6.344h3.234l.126,3.991h.168c.925-2.73,3.151-4.453,5.629-4.453.421,0,.715.042,1.051.126v3.487c-.378-.084-.756-.126-1.261-.126-2.604,0-4.452,1.974-4.956,4.746-.084.505-.168,1.093-.168,1.723v10.838h-3.655v-13.988Z"/>
    <path class="st7" d="M2944.727,196.7c.042,1.261-.883,2.269-2.353,2.269-1.303,0-2.227-1.008-2.227-2.269,0-1.302.966-2.311,2.311-2.311,1.386,0,2.269,1.009,2.269,2.311ZM2940.61,222.745v-20.332h3.697v20.332h-3.697Z"/>
    <path class="st7" d="M2952.497,213.251c.084,4.999,3.276,7.058,6.973,7.058,2.646,0,4.243-.462,5.63-1.05l.63,2.646c-1.303.588-3.528,1.26-6.764,1.26-6.259,0-9.997-4.116-9.997-10.25s3.612-10.964,9.535-10.964c6.638,0,8.401,5.839,8.401,9.578,0,.756-.084,1.344-.126,1.722h-14.282ZM2963.335,210.604c.042-2.352-.966-6.007-5.125-6.007-3.738,0-5.377,3.445-5.671,6.007h10.796Z"/>
    <path class="st7" d="M2988.492,217.2c0,2.101.042,3.948.169,5.545h-3.277l-.21-3.318h-.084c-.966,1.638-3.108,3.78-6.721,3.78-3.192,0-7.016-1.764-7.016-8.905v-11.889h3.696v11.259c0,3.864,1.177,6.469,4.537,6.469,2.479,0,4.201-1.723,4.873-3.36.21-.546.336-1.219.336-1.891v-12.477h3.696v14.787Z"/>
    <path class="st7" d="M2994.622,208.757c0-2.395-.042-4.453-.168-6.344h3.234l.126,3.991h.168c.925-2.73,3.151-4.453,5.629-4.453.421,0,.715.042,1.051.126v3.487c-.378-.084-.756-.126-1.261-.126-2.604,0-4.452,1.974-4.956,4.746-.084.505-.169,1.093-.169,1.723v10.838h-3.654v-13.988Z"/>
    <path class="st7" d="M3009.994,213.251c.084,4.999,3.276,7.058,6.974,7.058,2.646,0,4.242-.462,5.629-1.05l.63,2.646c-1.303.588-3.528,1.26-6.764,1.26-6.259,0-9.997-4.116-9.997-10.25s3.612-10.964,9.535-10.964c6.638,0,8.401,5.839,8.401,9.578,0,.756-.084,1.344-.126,1.722h-14.282ZM3020.832,210.604c.042-2.352-.966-6.007-5.125-6.007-3.738,0-5.377,3.445-5.671,6.007h10.796Z"/>
    <path class="st7" d="M3028.473,218.965c1.092.714,3.024,1.47,4.873,1.47,2.688,0,3.948-1.344,3.948-3.024,0-1.765-1.05-2.73-3.78-3.738-3.655-1.303-5.377-3.319-5.377-5.756,0-3.276,2.646-5.965,7.015-5.965,2.059,0,3.865.588,4.999,1.261l-.924,2.688c-.798-.504-2.269-1.177-4.159-1.177-2.184,0-3.402,1.261-3.402,2.772,0,1.681,1.219,2.437,3.865,3.445,3.528,1.344,5.335,3.108,5.335,6.133,0,3.57-2.772,6.091-7.604,6.091-2.227,0-4.285-.546-5.713-1.386l.924-2.814Z"/>
    <path class="st7" d="M3043.382,227.828c2.982-4.159,5.293-9.62,5.293-17.182,0-7.519-2.269-12.896-5.293-17.055h2.856c2.688,3.444,5.503,8.821,5.503,17.098,0,8.233-2.814,13.568-5.503,17.139h-2.856Z"/>
    <path class="st7" d="M2042.33,259.451c0-2.604-.084-4.705-.168-6.638h3.319l.168,3.487h.084c1.512-2.479,3.907-3.949,7.225-3.949,4.915,0,8.612,4.159,8.612,10.334,0,7.31-4.453,10.922-9.242,10.922-2.688,0-5.041-1.176-6.259-3.192h-.084v11.048h-3.655v-22.012ZM2045.985,264.87c0,.546.084,1.05.168,1.512.672,2.562,2.898,4.327,5.545,4.327,3.907,0,6.175-3.192,6.175-7.855,0-4.074-2.143-7.562-6.049-7.562-2.521,0-4.873,1.807-5.587,4.579-.126.462-.252,1.008-.252,1.513v3.486Z"/>
    <path class="st7" d="M2077.486,273.145l-.294-2.562h-.126c-1.134,1.597-3.318,3.024-6.217,3.024-4.117,0-6.217-2.898-6.217-5.839,0-4.915,4.369-7.604,12.224-7.562v-.42c0-1.681-.462-4.705-4.621-4.705-1.891,0-3.865.588-5.293,1.513l-.84-2.437c1.68-1.092,4.117-1.807,6.679-1.807,6.217,0,7.729,4.243,7.729,8.317v7.604c0,1.765.084,3.486.336,4.873h-3.36ZM2076.94,262.769c-4.033-.084-8.611.63-8.611,4.579,0,2.395,1.596,3.528,3.486,3.528,2.646,0,4.327-1.68,4.915-3.402.126-.378.21-.798.21-1.177v-3.528Z"/>
    <path class="st7" d="M2086.471,259.157c0-2.395-.042-4.453-.168-6.344h3.235l.126,3.991h.168c.924-2.73,3.15-4.453,5.629-4.453.42,0,.714.042,1.05.126v3.487c-.378-.084-.756-.126-1.26-.126-2.604,0-4.453,1.974-4.957,4.746-.084.505-.168,1.093-.168,1.723v10.838h-3.655v-13.988Z"/>
    <path class="st7" d="M2105.666,246.974v5.839h5.293v2.814h-5.293v10.965c0,2.521.714,3.948,2.772,3.948.966,0,1.68-.126,2.142-.252l.168,2.772c-.714.294-1.848.504-3.276.504-1.722,0-3.108-.546-3.991-1.554-1.05-1.093-1.428-2.898-1.428-5.293v-11.091h-3.15v-2.814h3.15v-4.872l3.613-.967Z"/>
    <path class="st7" d="M2119.231,247.1c.042,1.261-.882,2.269-2.352,2.269-1.302,0-2.227-1.008-2.227-2.269,0-1.302.966-2.311,2.311-2.311,1.386,0,2.268,1.009,2.268,2.311ZM2115.114,273.145v-20.332h3.697v20.332h-3.697Z"/>
    <path class="st7" d="M2139.435,272.389c-.966.504-3.108,1.176-5.839,1.176-6.133,0-10.124-4.158-10.124-10.376,0-6.259,4.285-10.796,10.922-10.796,2.185,0,4.117.546,5.125,1.051l-.84,2.856c-.882-.504-2.268-.967-4.285-.967-4.663,0-7.183,3.445-7.183,7.688,0,4.705,3.024,7.604,7.057,7.604,2.101,0,3.487-.546,4.537-1.008l.63,2.772Z"/>
    <path class="st7" d="M2147.875,247.1c.042,1.261-.882,2.269-2.352,2.269-1.302,0-2.227-1.008-2.227-2.269,0-1.302.966-2.311,2.311-2.311,1.386,0,2.268,1.009,2.268,2.311ZM2143.758,273.145v-20.332h3.697v20.332h-3.697Z"/>
    <path class="st7" d="M2153.586,259.451c0-2.604-.084-4.705-.168-6.638h3.319l.168,3.487h.084c1.512-2.479,3.907-3.949,7.225-3.949,4.915,0,8.612,4.159,8.612,10.334,0,7.31-4.453,10.922-9.242,10.922-2.688,0-5.041-1.176-6.259-3.192h-.084v11.048h-3.655v-22.012ZM2157.24,264.87c0,.546.084,1.05.168,1.512.672,2.562,2.898,4.327,5.545,4.327,3.907,0,6.175-3.192,6.175-7.855,0-4.074-2.143-7.562-6.049-7.562-2.521,0-4.873,1.807-5.587,4.579-.126.462-.252,1.008-.252,1.513v3.486Z"/>
    <path class="st7" d="M2188.741,273.145l-.294-2.562h-.126c-1.134,1.597-3.318,3.024-6.217,3.024-4.117,0-6.217-2.898-6.217-5.839,0-4.915,4.369-7.604,12.224-7.562v-.42c0-1.681-.462-4.705-4.621-4.705-1.891,0-3.865.588-5.293,1.513l-.84-2.437c1.68-1.092,4.117-1.807,6.679-1.807,6.217,0,7.729,4.243,7.729,8.317v7.604c0,1.765.084,3.486.336,4.873h-3.36ZM2188.195,262.769c-4.033-.084-8.611.63-8.611,4.579,0,2.395,1.596,3.528,3.486,3.528,2.646,0,4.327-1.68,4.915-3.402.126-.378.21-.798.21-1.177v-3.528Z"/>
    <path class="st7" d="M2197.727,258.316c0-2.1-.042-3.822-.168-5.503h3.277l.21,3.361h.084c1.008-1.933,3.36-3.823,6.721-3.823,2.814,0,7.183,1.681,7.183,8.653v12.141h-3.697v-11.72c0-3.277-1.218-6.008-4.705-6.008-2.437,0-4.327,1.723-4.957,3.781-.168.462-.252,1.092-.252,1.722v12.225h-3.697v-14.829Z"/>
    <path class="st7" d="M2225.322,246.974v5.839h5.293v2.814h-5.293v10.965c0,2.521.714,3.948,2.772,3.948.966,0,1.68-.126,2.142-.252l.168,2.772c-.714.294-1.848.504-3.276.504-1.722,0-3.108-.546-3.991-1.554-1.05-1.093-1.428-2.898-1.428-5.293v-11.091h-3.15v-2.814h3.15v-4.872l3.613-.967Z"/>
    <path class="st7" d="M2247.791,247.1c.042,1.261-.882,2.269-2.352,2.269-1.302,0-2.227-1.008-2.227-2.269,0-1.302.966-2.311,2.311-2.311,1.386,0,2.268,1.009,2.268,2.311ZM2243.674,273.145v-20.332h3.697v20.332h-3.697Z"/>
    <path class="st7" d="M2253.502,258.316c0-2.1-.042-3.822-.168-5.503h3.277l.21,3.361h.084c1.008-1.933,3.36-3.823,6.721-3.823,2.814,0,7.183,1.681,7.183,8.653v12.141h-3.697v-11.72c0-3.277-1.218-6.008-4.705-6.008-2.437,0-4.327,1.723-4.957,3.781-.168.462-.252,1.092-.252,1.722v12.225h-3.697v-14.829Z"/>
    <path class="st7" d="M2276.307,269.365c1.092.714,3.024,1.47,4.873,1.47,2.688,0,3.948-1.344,3.948-3.024,0-1.765-1.05-2.73-3.78-3.738-3.655-1.303-5.377-3.319-5.377-5.756,0-3.276,2.646-5.965,7.015-5.965,2.058,0,3.865.588,4.999,1.261l-.924,2.688c-.798-.504-2.269-1.177-4.159-1.177-2.185,0-3.403,1.261-3.403,2.772,0,1.681,1.218,2.437,3.865,3.445,3.529,1.344,5.335,3.108,5.335,6.133,0,3.57-2.772,6.091-7.604,6.091-2.226,0-4.285-.546-5.713-1.386l.924-2.814Z"/>
    <path class="st7" d="M2297.56,247.1c.042,1.261-.882,2.269-2.352,2.269-1.302,0-2.227-1.008-2.227-2.269,0-1.302.966-2.311,2.311-2.311,1.386,0,2.268,1.009,2.268,2.311ZM2293.443,273.145v-20.332h3.697v20.332h-3.697Z"/>
    <path class="st7" d="M2320.83,243.32v24.574c0,1.807.042,3.864.168,5.251h-3.318l-.168-3.528h-.084c-1.134,2.269-3.613,3.99-6.931,3.99-4.915,0-8.696-4.158-8.696-10.334-.042-6.763,4.159-10.922,9.116-10.922,3.108,0,5.209,1.471,6.133,3.108h.084v-12.14h3.696ZM2317.134,261.09c0-.463-.042-1.093-.168-1.555-.546-2.353-2.562-4.285-5.335-4.285-3.822,0-6.091,3.361-6.091,7.855,0,4.117,2.016,7.52,6.007,7.52,2.479,0,4.747-1.639,5.419-4.411.126-.504.168-1.008.168-1.596v-3.528Z"/>
    <path class="st7" d="M2329.017,263.651c.084,4.999,3.276,7.058,6.973,7.058,2.646,0,4.243-.462,5.629-1.05l.63,2.646c-1.302.588-3.529,1.26-6.763,1.26-6.259,0-9.998-4.116-9.998-10.25s3.613-10.964,9.536-10.964c6.637,0,8.402,5.839,8.402,9.578,0,.756-.084,1.344-.126,1.722h-14.282ZM2339.855,261.005c.042-2.352-.966-6.007-5.125-6.007-3.739,0-5.377,3.445-5.671,6.007h10.796Z"/>
    <path class="st7" d="M2356.736,273.145c.084-1.387.168-3.444.168-5.251v-24.574h3.655v12.771h.084c1.302-2.269,3.655-3.739,6.931-3.739,5.041,0,8.612,4.201,8.57,10.376,0,7.268-4.579,10.88-9.116,10.88-2.94,0-5.293-1.134-6.805-3.822h-.126l-.168,3.36h-3.193ZM2360.559,264.996c0,.462.084.924.168,1.344.714,2.562,2.857,4.327,5.545,4.327,3.864,0,6.175-3.15,6.175-7.813,0-4.074-2.101-7.562-6.049-7.562-2.521,0-4.873,1.723-5.629,4.537-.084.42-.21.924-.21,1.513v3.654Z"/>
    <path class="st7" d="M2399.201,262.811c0,7.52-5.209,10.796-10.124,10.796-5.503,0-9.745-4.032-9.745-10.46,0-6.805,4.452-10.796,10.082-10.796,5.839,0,9.787,4.243,9.787,10.46ZM2383.07,263.021c0,4.453,2.562,7.813,6.176,7.813,3.528,0,6.175-3.318,6.175-7.897,0-3.444-1.723-7.813-6.091-7.813s-6.26,4.033-6.26,7.897Z"/>
    <path class="st7" d="M2404.995,252.813l2.898,4.369c.756,1.134,1.386,2.185,2.058,3.318h.126c.673-1.218,1.345-2.269,2.017-3.36l2.856-4.327h3.991l-6.932,9.83,7.142,10.502h-4.201l-2.982-4.579c-.798-1.176-1.47-2.311-2.185-3.528h-.084c-.672,1.218-1.386,2.311-2.143,3.528l-2.94,4.579h-4.074l7.226-10.376-6.89-9.956h4.117Z"/>
    <path class="st7" d="M2438.468,249.285h-.084l-4.746,2.562-.715-2.814,5.966-3.192h3.15v27.305h-3.571v-23.86Z"/>
    <path class="st7" d="M2452.873,268.902c1.051.673,3.487,1.723,6.05,1.723,4.746,0,6.217-3.024,6.175-5.293-.042-3.822-3.486-5.461-7.058-5.461h-2.059v-2.772h2.059c2.688,0,6.091-1.386,6.091-4.621,0-2.185-1.386-4.116-4.788-4.116-2.185,0-4.285.966-5.461,1.806l-.967-2.688c1.429-1.05,4.201-2.1,7.142-2.1,5.377,0,7.813,3.192,7.813,6.511,0,2.814-1.681,5.209-5.041,6.427v.085c3.36.672,6.091,3.192,6.091,7.015,0,4.369-3.402,8.191-9.955,8.191-3.067,0-5.756-.966-7.1-1.849l1.008-2.856Z"/>
    <path class="st7" d="M2491.683,259.199c0,9.283-3.445,14.408-9.494,14.408-5.335,0-8.947-4.999-9.031-14.03,0-9.157,3.948-14.198,9.493-14.198,5.755,0,9.032,5.125,9.032,13.82ZM2476.854,259.619c0,7.1,2.185,11.132,5.545,11.132,3.781,0,5.587-4.411,5.587-11.384,0-6.722-1.722-11.132-5.545-11.132-3.234,0-5.587,3.948-5.587,11.384Z"/>
    <path class="st7" d="M2497.98,252.813l2.898,4.369c.756,1.134,1.386,2.185,2.058,3.318h.126c.673-1.218,1.345-2.269,2.017-3.36l2.856-4.327h3.991l-6.932,9.83,7.142,10.502h-4.201l-2.982-4.579c-.798-1.176-1.47-2.311-2.185-3.528h-.084c-.672,1.218-1.386,2.311-2.143,3.528l-2.94,4.579h-4.074l7.226-10.376-6.89-9.956h4.117Z"/>
    <path class="st7" d="M2515.41,268.902c1.05.673,3.486,1.723,6.049,1.723,4.747,0,6.217-3.024,6.175-5.293-.042-3.822-3.486-5.461-7.057-5.461h-2.059v-2.772h2.059c2.688,0,6.091-1.386,6.091-4.621,0-2.185-1.387-4.116-4.789-4.116-2.185,0-4.284.966-5.461,1.806l-.966-2.688c1.428-1.05,4.2-2.1,7.141-2.1,5.377,0,7.813,3.192,7.813,6.511,0,2.814-1.68,5.209-5.041,6.427v.085c3.361.672,6.092,3.192,6.092,7.015,0,4.369-3.403,8.191-9.956,8.191-3.066,0-5.755-.966-7.1-1.849l1.009-2.856Z"/>
    <path class="st7" d="M2553.8,245.841v2.437l-11.889,24.868h-3.822l11.846-24.154v-.084h-13.358v-3.066h17.224Z"/>
    <path class="st7" d="M2575.345,245.841v2.437l-11.889,24.868h-3.822l11.846-24.154v-.084h-13.358v-3.066h17.224Z"/>
    <path class="st7" d="M2582.062,252.813l2.898,4.369c.756,1.134,1.387,2.185,2.059,3.318h.126c.672-1.218,1.344-2.269,2.017-3.36l2.856-4.327h3.99l-6.931,9.83,7.141,10.502h-4.2l-2.982-4.579c-.799-1.176-1.471-2.311-2.185-3.528h-.084c-.672,1.218-1.387,2.311-2.143,3.528l-2.94,4.579h-4.075l7.226-10.376-6.89-9.956h4.117Z"/>
    <path class="st7" d="M2599.492,268.902c1.05.673,3.486,1.723,6.049,1.723,4.747,0,6.217-3.024,6.175-5.293-.042-3.822-3.486-5.461-7.058-5.461h-2.058v-2.772h2.058c2.688,0,6.092-1.386,6.092-4.621,0-2.185-1.387-4.116-4.789-4.116-2.185,0-4.285.966-5.461,1.806l-.966-2.688c1.428-1.05,4.2-2.1,7.141-2.1,5.377,0,7.813,3.192,7.813,6.511,0,2.814-1.681,5.209-5.041,6.427v.085c3.36.672,6.091,3.192,6.091,7.015,0,4.369-3.402,8.191-9.955,8.191-3.066,0-5.755-.966-7.1-1.849l1.009-2.856Z"/>
    <path class="st7" d="M2635.739,248.445c-.756-.042-1.722,0-2.772.168-5.797.966-8.863,5.209-9.493,9.703h.126c1.302-1.722,3.57-3.15,6.595-3.15,4.831,0,8.234,3.487,8.234,8.822,0,4.998-3.403,9.619-9.074,9.619-5.839,0-9.661-4.537-9.661-11.636,0-5.377,1.932-9.62,4.62-12.309,2.269-2.227,5.293-3.612,8.738-4.032,1.092-.168,2.016-.21,2.688-.21v3.024ZM2634.689,264.198c0-3.907-2.227-6.26-5.629-6.26-2.227,0-4.285,1.387-5.293,3.361-.252.42-.42.966-.42,1.638.084,4.495,2.143,7.813,6.007,7.813,3.192,0,5.335-2.646,5.335-6.553Z"/>
    <path class="st7" d="M2659.803,243.992c-3.066,4.117-5.293,9.578-5.293,17.182,0,7.477,2.311,12.854,5.293,17.055h-2.898c-2.646-3.486-5.503-8.863-5.503-17.055.042-8.276,2.856-13.653,5.503-17.182h2.898Z"/>
    <path class="st7" d="M2681.267,243.32v24.574c0,1.807.042,3.864.168,5.251h-3.319l-.168-3.528h-.084c-1.134,2.269-3.612,3.99-6.931,3.99-4.915,0-8.695-4.158-8.695-10.334-.042-6.763,4.158-10.922,9.115-10.922,3.108,0,5.209,1.471,6.133,3.108h.084v-12.14h3.697ZM2677.57,261.09c0-.463-.042-1.093-.168-1.555-.546-2.353-2.562-4.285-5.335-4.285-3.822,0-6.091,3.361-6.091,7.855,0,4.117,2.017,7.52,6.007,7.52,2.479,0,4.747-1.639,5.419-4.411.126-.504.168-1.008.168-1.596v-3.528Z"/>
    <path class="st7" d="M2691.512,247.1c.042,1.261-.883,2.269-2.353,2.269-1.303,0-2.227-1.008-2.227-2.269,0-1.302.966-2.311,2.311-2.311,1.386,0,2.269,1.009,2.269,2.311ZM2687.395,273.145v-20.332h3.697v20.332h-3.697Z"/>
    <path class="st7" d="M2697.223,258.316c0-2.1-.042-3.822-.168-5.503h3.234l.168,3.277h.126c1.135-1.933,3.025-3.739,6.386-3.739,2.772,0,4.873,1.681,5.755,4.075h.084c.63-1.135,1.428-2.017,2.269-2.646,1.218-.925,2.562-1.429,4.494-1.429,2.688,0,6.68,1.765,6.68,8.822v11.972h-3.612v-11.51c0-3.907-1.429-6.26-4.411-6.26-2.101,0-3.738,1.555-4.369,3.361-.168.504-.294,1.176-.294,1.848v12.561h-3.612v-12.183c0-3.234-1.429-5.587-4.243-5.587-2.311,0-3.99,1.849-4.578,3.697-.21.546-.295,1.176-.295,1.806v12.267h-3.612v-14.829Z"/>
    <path class="st7" d="M2734.309,263.651c.084,4.999,3.276,7.058,6.973,7.058,2.646,0,4.243-.462,5.63-1.05l.63,2.646c-1.303.588-3.528,1.26-6.764,1.26-6.259,0-9.997-4.116-9.997-10.25s3.612-10.964,9.535-10.964c6.638,0,8.401,5.839,8.401,9.578,0,.756-.084,1.344-.126,1.722h-14.282ZM2745.147,261.005c.042-2.352-.966-6.007-5.125-6.007-3.738,0-5.377,3.445-5.671,6.007h10.796Z"/>
    <path class="st7" d="M2753.293,258.316c0-2.1-.042-3.822-.168-5.503h3.276l.21,3.361h.084c1.009-1.933,3.361-3.823,6.722-3.823,2.814,0,7.184,1.681,7.184,8.653v12.141h-3.697v-11.72c0-3.277-1.218-6.008-4.705-6.008-2.436,0-4.326,1.723-4.956,3.781-.168.462-.252,1.092-.252,1.722v12.225h-3.697v-14.829Z"/>
    <path class="st7" d="M2776.098,269.365c1.092.714,3.024,1.47,4.873,1.47,2.688,0,3.948-1.344,3.948-3.024,0-1.765-1.05-2.73-3.78-3.738-3.655-1.303-5.377-3.319-5.377-5.756,0-3.276,2.646-5.965,7.015-5.965,2.059,0,3.865.588,4.999,1.261l-.924,2.688c-.798-.504-2.269-1.177-4.159-1.177-2.184,0-3.402,1.261-3.402,2.772,0,1.681,1.219,2.437,3.865,3.445,3.528,1.344,5.335,3.108,5.335,6.133,0,3.57-2.772,6.091-7.604,6.091-2.227,0-4.285-.546-5.713-1.386l.924-2.814Z"/>
    <path class="st7" d="M2797.351,247.1c.042,1.261-.883,2.269-2.353,2.269-1.303,0-2.227-1.008-2.227-2.269,0-1.302.966-2.311,2.311-2.311,1.386,0,2.269,1.009,2.269,2.311ZM2793.234,273.145v-20.332h3.697v20.332h-3.697Z"/>
    <path class="st7" d="M2821.462,262.811c0,7.52-5.209,10.796-10.124,10.796-5.503,0-9.745-4.032-9.745-10.46,0-6.805,4.452-10.796,10.081-10.796,5.84,0,9.788,4.243,9.788,10.46ZM2805.331,263.021c0,4.453,2.562,7.813,6.175,7.813,3.529,0,6.176-3.318,6.176-7.897,0-3.444-1.723-7.813-6.092-7.813s-6.259,4.033-6.259,7.897Z"/>
    <path class="st7" d="M2826.12,258.316c0-2.1-.042-3.822-.168-5.503h3.276l.21,3.361h.084c1.009-1.933,3.361-3.823,6.722-3.823,2.814,0,7.184,1.681,7.184,8.653v12.141h-3.697v-11.72c0-3.277-1.218-6.008-4.705-6.008-2.436,0-4.326,1.723-4.956,3.781-.168.462-.252,1.092-.252,1.722v12.225h-3.697v-14.829Z"/>
    <path class="st7" d="M2848.925,269.365c1.092.714,3.024,1.47,4.873,1.47,2.688,0,3.948-1.344,3.948-3.024,0-1.765-1.05-2.73-3.78-3.738-3.655-1.303-5.377-3.319-5.377-5.756,0-3.276,2.646-5.965,7.015-5.965,2.059,0,3.865.588,4.999,1.261l-.924,2.688c-.798-.504-2.269-1.177-4.159-1.177-2.184,0-3.402,1.261-3.402,2.772,0,1.681,1.219,2.437,3.865,3.445,3.528,1.344,5.335,3.108,5.335,6.133,0,3.57-2.772,6.091-7.604,6.091-2.227,0-4.285-.546-5.713-1.386l.924-2.814Z"/>
    <path class="st7" d="M2877.023,263.651c.084,4.999,3.276,7.058,6.974,7.058,2.646,0,4.242-.462,5.629-1.05l.63,2.646c-1.303.588-3.528,1.26-6.764,1.26-6.259,0-9.997-4.116-9.997-10.25s3.612-10.964,9.535-10.964c6.638,0,8.401,5.839,8.401,9.578,0,.756-.084,1.344-.126,1.722h-14.282ZM2887.861,261.005c.042-2.352-.966-6.007-5.125-6.007-3.738,0-5.377,3.445-5.671,6.007h10.796Z"/>
    <path class="st7" d="M2897.603,252.813l2.898,4.369c.756,1.134,1.386,2.185,2.059,3.318h.126c.672-1.218,1.344-2.269,2.016-3.36l2.856-4.327h3.991l-6.932,9.83,7.142,10.502h-4.201l-2.982-4.579c-.798-1.176-1.47-2.311-2.184-3.528h-.084c-.673,1.218-1.387,2.311-2.143,3.528l-2.94,4.579h-4.075l7.226-10.376-6.89-9.956h4.117Z"/>
    <path class="st7" d="M2920.325,246.974v5.839h5.293v2.814h-5.293v10.965c0,2.521.714,3.948,2.772,3.948.966,0,1.68-.126,2.143-.252l.168,2.772c-.715.294-1.849.504-3.277.504-1.722,0-3.108-.546-3.99-1.554-1.05-1.093-1.429-2.898-1.429-5.293v-11.091h-3.15v-2.814h3.15v-4.872l3.613-.967Z"/>
    <path class="st7" d="M2931.581,263.651c.084,4.999,3.276,7.058,6.973,7.058,2.646,0,4.243-.462,5.63-1.05l.63,2.646c-1.303.588-3.528,1.26-6.764,1.26-6.259,0-9.997-4.116-9.997-10.25s3.612-10.964,9.535-10.964c6.638,0,8.401,5.839,8.401,9.578,0,.756-.084,1.344-.126,1.722h-14.282ZM2942.419,261.005c.042-2.352-.966-6.007-5.125-6.007-3.738,0-5.377,3.445-5.671,6.007h10.796ZM2943.3,244.034l-5.125,6.007h-2.646l3.697-6.007h4.074Z"/>
    <path class="st7" d="M2950.563,259.157c0-2.395-.042-4.453-.168-6.344h3.234l.126,3.991h.168c.925-2.73,3.151-4.453,5.629-4.453.421,0,.715.042,1.051.126v3.487c-.378-.084-.756-.126-1.261-.126-2.604,0-4.452,1.974-4.956,4.746-.084.505-.169,1.093-.169,1.723v10.838h-3.654v-13.988Z"/>
    <path class="st7" d="M2968.583,247.1c.042,1.261-.883,2.269-2.353,2.269-1.303,0-2.227-1.008-2.227-2.269,0-1.302.966-2.311,2.311-2.311,1.386,0,2.269,1.009,2.269,2.311ZM2964.465,273.145v-20.332h3.697v20.332h-3.697Z"/>
    <path class="st7" d="M2976.351,263.651c.084,4.999,3.276,7.058,6.974,7.058,2.646,0,4.242-.462,5.629-1.05l.63,2.646c-1.303.588-3.528,1.26-6.764,1.26-6.259,0-9.997-4.116-9.997-10.25s3.612-10.964,9.535-10.964c6.638,0,8.401,5.839,8.401,9.578,0,.756-.084,1.344-.126,1.722h-14.282ZM2987.189,261.005c.042-2.352-.966-6.007-5.125-6.007-3.738,0-5.377,3.445-5.671,6.007h10.796Z"/>
    <path class="st7" d="M3012.347,267.6c0,2.101.042,3.948.169,5.545h-3.277l-.21-3.318h-.084c-.966,1.638-3.108,3.78-6.721,3.78-3.192,0-7.016-1.764-7.016-8.905v-11.889h3.696v11.259c0,3.864,1.177,6.469,4.537,6.469,2.479,0,4.201-1.723,4.873-3.36.21-.546.336-1.219.336-1.891v-12.477h3.696v14.787Z"/>
    <path class="st7" d="M3018.476,259.157c0-2.395-.042-4.453-.168-6.344h3.234l.126,3.991h.168c.925-2.73,3.151-4.453,5.629-4.453.421,0,.715.042,1.051.126v3.487c-.378-.084-.756-.126-1.261-.126-2.604,0-4.452,1.974-4.956,4.746-.084.505-.168,1.093-.168,1.723v10.838h-3.655v-13.988Z"/>
    <path class="st7" d="M3033.849,263.651c.084,4.999,3.276,7.058,6.974,7.058,2.646,0,4.242-.462,5.629-1.05l.63,2.646c-1.303.588-3.528,1.26-6.764,1.26-6.259,0-9.997-4.116-9.997-10.25s3.612-10.964,9.535-10.964c6.638,0,8.401,5.839,8.401,9.578,0,.756-.084,1.344-.126,1.722h-14.282ZM3044.687,261.005c.042-2.352-.966-6.007-5.125-6.007-3.738,0-5.377,3.445-5.671,6.007h10.796Z"/>
    <path class="st7" d="M3052.328,269.365c1.092.714,3.024,1.47,4.873,1.47,2.688,0,3.948-1.344,3.948-3.024,0-1.765-1.05-2.73-3.78-3.738-3.655-1.303-5.377-3.319-5.377-5.756,0-3.276,2.646-5.965,7.015-5.965,2.059,0,3.865.588,4.999,1.261l-.924,2.688c-.798-.504-2.269-1.177-4.159-1.177-2.184,0-3.402,1.261-3.402,2.772,0,1.681,1.219,2.437,3.865,3.445,3.528,1.344,5.335,3.108,5.335,6.133,0,3.57-2.772,6.091-7.604,6.091-2.227,0-4.285-.546-5.713-1.386l.924-2.814Z"/>
    <path class="st7" d="M3067.237,278.228c2.982-4.159,5.293-9.62,5.293-17.182,0-7.519-2.269-12.896-5.293-17.055h2.856c2.688,3.444,5.503,8.821,5.503,17.098,0,8.233-2.814,13.568-5.503,17.139h-2.856Z"/>
    <path class="st7" d="M2044.389,364.451c.084,4.999,3.276,7.058,6.973,7.058,2.646,0,4.243-.462,5.629-1.05l.63,2.646c-1.302.588-3.529,1.26-6.763,1.26-6.259,0-9.998-4.116-9.998-10.25s3.613-10.964,9.536-10.964c6.637,0,8.402,5.839,8.402,9.578,0,.756-.084,1.344-.126,1.722h-14.282ZM2055.227,361.805c.042-2.352-.966-6.007-5.125-6.007-3.739,0-5.377,3.445-5.671,6.007h10.796Z"/>
    <path class="st7" d="M2064.969,353.613l2.898,4.369c.756,1.134,1.386,2.185,2.058,3.318h.126c.672-1.218,1.344-2.269,2.017-3.36l2.856-4.327h3.991l-6.931,9.83,7.141,10.502h-4.201l-2.982-4.579c-.798-1.176-1.47-2.311-2.185-3.528h-.084c-.672,1.218-1.386,2.311-2.143,3.528l-2.94,4.579h-4.075l7.226-10.376-6.889-9.956h4.117Z"/>
    <path class="st7" d="M2082.692,360.251c0-2.604-.084-4.705-.168-6.638h3.319l.168,3.487h.084c1.512-2.479,3.907-3.949,7.225-3.949,4.915,0,8.612,4.159,8.612,10.334,0,7.31-4.453,10.922-9.242,10.922-2.688,0-5.041-1.176-6.259-3.192h-.084v11.048h-3.655v-22.012ZM2086.347,365.67c0,.546.084,1.05.168,1.512.672,2.562,2.898,4.327,5.545,4.327,3.907,0,6.175-3.192,6.175-7.855,0-4.074-2.143-7.562-6.049-7.562-2.521,0-4.873,1.807-5.587,4.579-.126.462-.252,1.008-.252,1.513v3.486Z"/>
    <path class="st7" d="M2108.648,364.451c.084,4.999,3.276,7.058,6.973,7.058,2.646,0,4.243-.462,5.629-1.05l.63,2.646c-1.302.588-3.529,1.26-6.763,1.26-6.259,0-9.998-4.116-9.998-10.25s3.613-10.964,9.536-10.964c6.637,0,8.402,5.839,8.402,9.578,0,.756-.084,1.344-.126,1.722h-14.282ZM2119.486,361.805c.042-2.352-.966-6.007-5.125-6.007-3.739,0-5.377,3.445-5.671,6.007h10.796Z"/>
    <path class="st7" d="M2127.631,359.957c0-2.395-.042-4.453-.168-6.344h3.235l.126,3.991h.168c.924-2.73,3.15-4.453,5.629-4.453.42,0,.714.042,1.05.126v3.487c-.378-.084-.756-.126-1.26-.126-2.604,0-4.453,1.974-4.957,4.746-.084.505-.168,1.093-.168,1.723v10.838h-3.655v-13.988Z"/>
    <path class="st7" d="M2145.65,347.9c.042,1.261-.882,2.269-2.352,2.269-1.302,0-2.227-1.008-2.227-2.269,0-1.302.966-2.311,2.311-2.311,1.386,0,2.268,1.009,2.268,2.311ZM2141.533,373.945v-20.332h3.697v20.332h-3.697Z"/>
    <path class="st7" d="M2151.361,359.116c0-2.1-.042-3.822-.168-5.503h3.235l.168,3.277h.126c1.134-1.933,3.024-3.739,6.385-3.739,2.772,0,4.873,1.681,5.755,4.075h.084c.63-1.135,1.428-2.017,2.269-2.646,1.218-.925,2.562-1.429,4.495-1.429,2.688,0,6.679,1.765,6.679,8.822v11.972h-3.613v-11.51c0-3.907-1.428-6.26-4.411-6.26-2.101,0-3.739,1.555-4.369,3.361-.168.504-.294,1.176-.294,1.848v12.561h-3.612v-12.183c0-3.234-1.428-5.587-4.243-5.587-2.311,0-3.991,1.849-4.579,3.697-.21.546-.294,1.176-.294,1.806v12.267h-3.613v-14.829Z"/>
    <path class="st7" d="M2188.447,364.451c.084,4.999,3.276,7.058,6.973,7.058,2.646,0,4.243-.462,5.629-1.05l.63,2.646c-1.302.588-3.529,1.26-6.763,1.26-6.259,0-9.998-4.116-9.998-10.25s3.613-10.964,9.536-10.964c6.637,0,8.402,5.839,8.402,9.578,0,.756-.084,1.344-.126,1.722h-14.282ZM2199.285,361.805c.042-2.352-.966-6.007-5.125-6.007-3.739,0-5.377,3.445-5.671,6.007h10.796Z"/>
    <path class="st7" d="M2207.43,359.116c0-2.1-.042-3.822-.168-5.503h3.277l.21,3.361h.084c1.008-1.933,3.36-3.823,6.721-3.823,2.814,0,7.183,1.681,7.183,8.653v12.141h-3.697v-11.72c0-3.277-1.218-6.008-4.705-6.008-2.437,0-4.327,1.723-4.957,3.781-.168.462-.252,1.092-.252,1.722v12.225h-3.697v-14.829Z"/>
    <path class="st7" d="M2235.025,347.774v5.839h5.293v2.814h-5.293v10.965c0,2.52.714,3.948,2.772,3.948.966,0,1.68-.126,2.142-.252l.168,2.772c-.714.294-1.848.504-3.276.504-1.722,0-3.108-.546-3.991-1.554-1.05-1.093-1.428-2.899-1.428-5.293v-11.091h-3.15v-2.814h3.15v-4.872l3.613-.967Z"/>
    <path class="st7" d="M2246.28,364.451c.084,4.999,3.276,7.058,6.973,7.058,2.646,0,4.243-.462,5.629-1.05l.63,2.646c-1.302.588-3.529,1.26-6.763,1.26-6.259,0-9.998-4.116-9.998-10.25s3.613-10.964,9.536-10.964c6.637,0,8.402,5.839,8.402,9.578,0,.756-.084,1.344-.126,1.722h-14.282ZM2257.118,361.805c.042-2.352-.966-6.007-5.125-6.007-3.739,0-5.377,3.445-5.671,6.007h10.796Z"/>
    <path class="st7" d="M2265.264,359.957c0-2.395-.042-4.453-.168-6.344h3.235l.126,3.991h.168c.924-2.73,3.15-4.453,5.629-4.453.42,0,.714.042,1.05.126v3.487c-.378-.084-.756-.126-1.26-.126-2.604,0-4.453,1.974-4.957,4.746-.084.505-.168,1.093-.168,1.723v10.838h-3.655v-13.988Z"/>
    <path class="st7" d="M2287.733,373.945c.084-1.387.168-3.444.168-5.251v-24.574h3.655v12.771h.084c1.302-2.269,3.655-3.739,6.931-3.739,5.041,0,8.612,4.201,8.57,10.376,0,7.268-4.579,10.88-9.116,10.88-2.94,0-5.293-1.134-6.805-3.822h-.126l-.168,3.36h-3.193ZM2291.556,365.796c0,.462.084.924.168,1.344.714,2.562,2.856,4.327,5.545,4.327,3.865,0,6.175-3.15,6.175-7.813,0-4.074-2.101-7.562-6.049-7.562-2.521,0-4.873,1.723-5.629,4.537-.084.42-.21.924-.21,1.513v3.654Z"/>
    <path class="st7" d="M2330.198,363.611c0,7.52-5.209,10.796-10.124,10.796-5.503,0-9.746-4.032-9.746-10.46,0-6.805,4.453-10.796,10.082-10.796,5.839,0,9.788,4.243,9.788,10.46ZM2314.067,363.821c0,4.453,2.562,7.813,6.175,7.813,3.528,0,6.175-3.318,6.175-7.897,0-3.444-1.722-7.813-6.091-7.813s-6.259,4.033-6.259,7.897Z"/>
    <path class="st7" d="M2335.991,353.613l2.898,4.369c.756,1.134,1.386,2.185,2.058,3.318h.126c.672-1.218,1.344-2.269,2.017-3.36l2.856-4.327h3.991l-6.931,9.83,7.141,10.502h-4.201l-2.982-4.579c-.798-1.176-1.47-2.311-2.185-3.528h-.084c-.672,1.218-1.386,2.311-2.143,3.528l-2.94,4.579h-4.075l7.226-10.376-6.889-9.956h4.117Z"/>
    <path class="st7" d="M2361.442,373.945v-2.269l2.899-2.814c6.974-6.637,10.124-10.166,10.166-14.282,0-2.772-1.345-5.335-5.419-5.335-2.479,0-4.537,1.26-5.797,2.311l-1.177-2.604c1.891-1.597,4.579-2.772,7.729-2.772,5.881,0,8.359,4.032,8.359,7.939,0,5.04-3.654,9.115-9.409,14.66l-2.185,2.017v.084h12.266v3.066h-17.433Z"/>
    <path class="st7" d="M2391.01,350.085h-.084l-4.746,2.562-.715-2.814,5.966-3.192h3.15v27.305h-3.571v-23.86Z"/>
    <path class="st7" d="M2422.68,359.999c0,9.283-3.445,14.408-9.494,14.408-5.335,0-8.947-4.999-9.031-14.03,0-9.157,3.948-14.198,9.493-14.198,5.755,0,9.032,5.125,9.032,13.82ZM2407.851,360.419c0,7.1,2.185,11.132,5.545,11.132,3.781,0,5.587-4.411,5.587-11.384,0-6.722-1.722-11.132-5.545-11.132-3.234,0-5.587,3.948-5.587,11.384Z"/>
    <path class="st7" d="M2428.977,353.613l2.898,4.369c.756,1.134,1.386,2.185,2.058,3.318h.126c.673-1.218,1.345-2.269,2.017-3.36l2.856-4.327h3.991l-6.932,9.83,7.142,10.502h-4.201l-2.982-4.579c-.798-1.176-1.47-2.311-2.185-3.528h-.084c-.672,1.218-1.386,2.311-2.143,3.528l-2.94,4.579h-4.074l7.226-10.376-6.89-9.956h4.117Z"/>
    <path class="st7" d="M2453.548,350.085h-.084l-4.747,2.562-.714-2.814,5.965-3.192h3.15v27.305h-3.57v-23.86Z"/>
    <path class="st7" d="M2475.092,350.085h-.084l-4.746,2.562-.715-2.814,5.966-3.192h3.15v27.305h-3.571v-23.86Z"/>
    <path class="st7" d="M2506.762,359.999c0,9.283-3.445,14.408-9.494,14.408-5.335,0-8.947-4.999-9.031-14.03,0-9.157,3.948-14.198,9.493-14.198,5.755,0,9.032,5.125,9.032,13.82ZM2491.933,360.419c0,7.1,2.185,11.132,5.545,11.132,3.781,0,5.587-4.411,5.587-11.384,0-6.722-1.722-11.132-5.545-11.132-3.234,0-5.587,3.948-5.587,11.384Z"/>
    <path class="st7" d="M2513.059,353.613l2.898,4.369c.756,1.134,1.386,2.185,2.058,3.318h.126c.673-1.218,1.345-2.269,2.017-3.36l2.856-4.327h3.991l-6.932,9.83,7.142,10.502h-4.201l-2.982-4.579c-.798-1.176-1.47-2.311-2.185-3.528h-.084c-.672,1.218-1.386,2.311-2.143,3.528l-2.94,4.579h-4.074l7.226-10.376-6.89-9.956h4.117Z"/>
    <path class="st7" d="M2530.488,369.702c1.051.673,3.487,1.723,6.05,1.723,4.746,0,6.217-3.024,6.175-5.293-.042-3.822-3.486-5.461-7.058-5.461h-2.059v-2.772h2.059c2.688,0,6.091-1.386,6.091-4.621,0-2.184-1.386-4.116-4.788-4.116-2.185,0-4.285.966-5.461,1.806l-.967-2.688c1.429-1.05,4.201-2.1,7.142-2.1,5.377,0,7.813,3.192,7.813,6.511,0,2.814-1.681,5.209-5.041,6.427v.085c3.36.672,6.091,3.192,6.091,7.015,0,4.369-3.402,8.191-9.955,8.191-3.067,0-5.756-.966-7.1-1.849l1.008-2.856Z"/>
    <path class="st7" d="M2566.736,349.245c-.756-.042-1.722,0-2.772.168-5.797.966-8.863,5.209-9.493,9.703h.126c1.302-1.722,3.57-3.15,6.595-3.15,4.831,0,8.233,3.487,8.233,8.822,0,4.998-3.402,9.619-9.073,9.619-5.839,0-9.662-4.537-9.662-11.636,0-5.377,1.933-9.62,4.621-12.309,2.269-2.227,5.293-3.612,8.737-4.032,1.093-.168,2.017-.21,2.688-.21v3.024ZM2565.686,364.998c0-3.907-2.227-6.26-5.629-6.26-2.227,0-4.285,1.387-5.293,3.361-.252.42-.42.966-.42,1.638.084,4.495,2.142,7.813,6.007,7.813,3.192,0,5.335-2.646,5.335-6.553Z"/>
    <path class="st7" d="M2590.8,344.792c-3.066,4.117-5.293,9.578-5.293,17.182,0,7.477,2.311,12.854,5.293,17.055h-2.898c-2.646-3.486-5.503-8.863-5.503-17.055.042-8.276,2.856-13.653,5.503-17.182h2.898Z"/>
    <path class="st7" d="M2612.263,344.12v24.574c0,1.807.042,3.864.168,5.251h-3.318l-.168-3.528h-.084c-1.135,2.269-3.612,3.99-6.932,3.99-4.914,0-8.695-4.158-8.695-10.334-.042-6.763,4.159-10.922,9.115-10.922,3.109,0,5.209,1.471,6.134,3.108h.084v-12.14h3.696ZM2608.567,361.889c0-.463-.042-1.093-.168-1.555-.546-2.353-2.562-4.285-5.335-4.285-3.823,0-6.091,3.361-6.091,7.855,0,4.117,2.016,7.52,6.007,7.52,2.479,0,4.746-1.639,5.419-4.411.126-.504.168-1.008.168-1.596v-3.528Z"/>
    <path class="st7" d="M2622.509,347.9c.042,1.261-.883,2.269-2.353,2.269-1.303,0-2.227-1.008-2.227-2.269,0-1.302.966-2.311,2.311-2.311,1.386,0,2.269,1.009,2.269,2.311ZM2618.392,373.945v-20.332h3.697v20.332h-3.697Z"/>
    <path class="st7" d="M2628.219,359.116c0-2.1-.042-3.822-.168-5.503h3.234l.168,3.277h.126c1.135-1.933,3.025-3.739,6.386-3.739,2.772,0,4.873,1.681,5.755,4.075h.084c.63-1.135,1.428-2.017,2.269-2.646,1.218-.925,2.562-1.429,4.494-1.429,2.688,0,6.68,1.765,6.68,8.822v11.972h-3.612v-11.51c0-3.907-1.429-6.26-4.411-6.26-2.101,0-3.738,1.555-4.369,3.361-.168.504-.294,1.176-.294,1.848v12.561h-3.612v-12.183c0-3.234-1.429-5.587-4.243-5.587-2.311,0-3.99,1.849-4.578,3.697-.21.546-.295,1.176-.295,1.806v12.267h-3.612v-14.829Z"/>
    <path class="st7" d="M2665.306,364.451c.084,4.999,3.276,7.058,6.974,7.058,2.646,0,4.242-.462,5.629-1.05l.63,2.646c-1.303.588-3.528,1.26-6.764,1.26-6.259,0-9.997-4.116-9.997-10.25s3.612-10.964,9.535-10.964c6.638,0,8.401,5.839,8.401,9.578,0,.756-.084,1.344-.126,1.722h-14.282ZM2676.144,361.805c.042-2.352-.966-6.007-5.125-6.007-3.738,0-5.377,3.445-5.671,6.007h10.796Z"/>
    <path class="st7" d="M2684.29,359.116c0-2.1-.042-3.822-.168-5.503h3.276l.21,3.361h.084c1.009-1.933,3.361-3.823,6.722-3.823,2.814,0,7.184,1.681,7.184,8.653v12.141h-3.697v-11.72c0-3.277-1.218-6.008-4.705-6.008-2.436,0-4.326,1.723-4.956,3.781-.168.462-.252,1.092-.252,1.722v12.225h-3.697v-14.829Z"/>
    <path class="st7" d="M2707.095,370.165c1.092.714,3.024,1.47,4.873,1.47,2.688,0,3.948-1.344,3.948-3.024,0-1.765-1.05-2.73-3.78-3.738-3.655-1.303-5.377-3.319-5.377-5.756,0-3.276,2.646-5.965,7.015-5.965,2.059,0,3.865.588,4.999,1.261l-.924,2.688c-.798-.504-2.269-1.177-4.159-1.177-2.184,0-3.402,1.261-3.402,2.772,0,1.681,1.219,2.437,3.865,3.445,3.528,1.344,5.335,3.108,5.335,6.133,0,3.57-2.772,6.091-7.604,6.091-2.227,0-4.285-.546-5.713-1.386l.924-2.814Z"/>
    <path class="st7" d="M2728.348,347.9c.042,1.261-.883,2.269-2.353,2.269-1.303,0-2.227-1.008-2.227-2.269,0-1.302.966-2.311,2.311-2.311,1.386,0,2.269,1.009,2.269,2.311ZM2724.231,373.945v-20.332h3.697v20.332h-3.697Z"/>
    <path class="st7" d="M2752.458,363.611c0,7.52-5.209,10.796-10.124,10.796-5.503,0-9.745-4.032-9.745-10.46,0-6.805,4.452-10.796,10.081-10.796,5.84,0,9.788,4.243,9.788,10.46ZM2736.327,363.821c0,4.453,2.562,7.813,6.175,7.813,3.529,0,6.176-3.318,6.176-7.897,0-3.444-1.723-7.813-6.092-7.813s-6.259,4.033-6.259,7.897Z"/>
    <path class="st7" d="M2757.117,359.116c0-2.1-.042-3.822-.168-5.503h3.276l.21,3.361h.084c1.009-1.933,3.361-3.823,6.722-3.823,2.814,0,7.184,1.681,7.184,8.653v12.141h-3.697v-11.72c0-3.277-1.218-6.008-4.705-6.008-2.436,0-4.326,1.723-4.956,3.781-.168.462-.252,1.092-.252,1.722v12.225h-3.697v-14.829Z"/>
    <path class="st7" d="M2779.923,370.165c1.092.714,3.024,1.47,4.873,1.47,2.688,0,3.948-1.344,3.948-3.024,0-1.765-1.05-2.73-3.78-3.738-3.655-1.303-5.377-3.319-5.377-5.756,0-3.276,2.646-5.965,7.015-5.965,2.059,0,3.865.588,4.999,1.261l-.924,2.688c-.798-.504-2.269-1.177-4.159-1.177-2.184,0-3.402,1.261-3.402,2.772,0,1.681,1.219,2.437,3.865,3.445,3.528,1.344,5.335,3.108,5.335,6.133,0,3.57-2.772,6.091-7.604,6.091-2.227,0-4.285-.546-5.713-1.386l.924-2.814Z"/>
    <path class="st7" d="M2810.079,347.9c.042,1.261-.883,2.269-2.353,2.269-1.303,0-2.227-1.008-2.227-2.269,0-1.302.966-2.311,2.311-2.311,1.386,0,2.269,1.009,2.269,2.311ZM2805.962,373.945v-20.332h3.697v20.332h-3.697Z"/>
    <path class="st7" d="M2815.79,359.116c0-2.1-.042-3.822-.168-5.503h3.276l.21,3.361h.084c1.009-1.933,3.361-3.823,6.722-3.823,2.814,0,7.184,1.681,7.184,8.653v12.141h-3.697v-11.72c0-3.277-1.218-6.008-4.705-6.008-2.436,0-4.326,1.723-4.956,3.781-.168.462-.252,1.092-.252,1.722v12.225h-3.697v-14.829Z"/>
    <path class="st7" d="M2843.384,347.774v5.839h5.293v2.814h-5.293v10.965c0,2.52.714,3.948,2.772,3.948.966,0,1.68-.126,2.143-.252l.168,2.772c-.715.294-1.849.504-3.277.504-1.722,0-3.108-.546-3.99-1.554-1.05-1.093-1.429-2.899-1.429-5.293v-11.091h-3.15v-2.814h3.15v-4.872l3.613-.967Z"/>
    <path class="st7" d="M2854.639,364.451c.084,4.999,3.276,7.058,6.973,7.058,2.646,0,4.243-.462,5.63-1.05l.63,2.646c-1.303.588-3.528,1.26-6.764,1.26-6.259,0-9.997-4.116-9.997-10.25s3.612-10.964,9.535-10.964c6.638,0,8.401,5.839,8.401,9.578,0,.756-.084,1.344-.126,1.722h-14.282ZM2865.477,361.805c.042-2.352-.966-6.007-5.125-6.007-3.738,0-5.377,3.445-5.671,6.007h10.796ZM2866.359,344.834l-5.125,6.007h-2.646l3.697-6.007h4.074Z"/>
    <path class="st7" d="M2873.623,359.957c0-2.395-.042-4.453-.168-6.344h3.234l.126,3.991h.168c.925-2.73,3.151-4.453,5.629-4.453.421,0,.715.042,1.051.126v3.487c-.378-.084-.756-.126-1.261-.126-2.604,0-4.452,1.974-4.956,4.746-.084.505-.168,1.093-.168,1.723v10.838h-3.655v-13.988Z"/>
    <path class="st7" d="M2891.641,347.9c.042,1.261-.883,2.269-2.353,2.269-1.303,0-2.227-1.008-2.227-2.269,0-1.302.966-2.311,2.311-2.311,1.386,0,2.269,1.009,2.269,2.311ZM2887.524,373.945v-20.332h3.697v20.332h-3.697Z"/>
    <path class="st7" d="M2899.411,364.451c.084,4.999,3.276,7.058,6.973,7.058,2.646,0,4.243-.462,5.63-1.05l.63,2.646c-1.303.588-3.528,1.26-6.764,1.26-6.259,0-9.997-4.116-9.997-10.25s3.612-10.964,9.535-10.964c6.638,0,8.401,5.839,8.401,9.578,0,.756-.084,1.344-.126,1.722h-14.282ZM2910.249,361.805c.042-2.352-.966-6.007-5.125-6.007-3.738,0-5.377,3.445-5.671,6.007h10.796Z"/>
    <path class="st7" d="M2935.406,368.4c0,2.101.042,3.948.169,5.545h-3.277l-.21-3.318h-.084c-.966,1.638-3.108,3.78-6.721,3.78-3.192,0-7.016-1.764-7.016-8.905v-11.889h3.696v11.259c0,3.864,1.177,6.469,4.537,6.469,2.479,0,4.201-1.723,4.873-3.36.21-.546.336-1.219.336-1.891v-12.477h3.696v14.787Z"/>
    <path class="st7" d="M2941.536,359.957c0-2.395-.042-4.453-.168-6.344h3.234l.126,3.991h.168c.925-2.73,3.151-4.453,5.629-4.453.421,0,.715.042,1.051.126v3.487c-.378-.084-.756-.126-1.261-.126-2.604,0-4.452,1.974-4.956,4.746-.084.505-.169,1.093-.169,1.723v10.838h-3.654v-13.988Z"/>
    <path class="st7" d="M2956.908,364.451c.084,4.999,3.276,7.058,6.974,7.058,2.646,0,4.242-.462,5.629-1.05l.63,2.646c-1.303.588-3.528,1.26-6.764,1.26-6.259,0-9.997-4.116-9.997-10.25s3.612-10.964,9.535-10.964c6.638,0,8.401,5.839,8.401,9.578,0,.756-.084,1.344-.126,1.722h-14.282ZM2967.746,361.805c.042-2.352-.966-6.007-5.125-6.007-3.738,0-5.377,3.445-5.671,6.007h10.796Z"/>
    <path class="st7" d="M2975.387,370.165c1.092.714,3.024,1.47,4.873,1.47,2.688,0,3.948-1.344,3.948-3.024,0-1.765-1.05-2.73-3.78-3.738-3.655-1.303-5.377-3.319-5.377-5.756,0-3.276,2.646-5.965,7.015-5.965,2.059,0,3.865.588,4.999,1.261l-.924,2.688c-.798-.504-2.269-1.177-4.159-1.177-2.184,0-3.402,1.261-3.402,2.772,0,1.681,1.219,2.437,3.865,3.445,3.528,1.344,5.335,3.108,5.335,6.133,0,3.57-2.772,6.091-7.604,6.091-2.227,0-4.285-.546-5.713-1.386l.924-2.814Z"/>
    <path class="st7" d="M2990.297,379.028c2.982-4.159,5.293-9.62,5.293-17.181,0-7.52-2.269-12.896-5.293-17.056h2.856c2.688,3.444,5.503,8.821,5.503,17.098,0,8.233-2.814,13.568-5.503,17.139h-2.856Z"/>
  </g>
  <g id="svg2">
    <sodipodi:namedview id="base" bordercolor="#666666" borderopacity="1.0" fit-margin-bottom="5" fit-margin-left="5" fit-margin-right="5" fit-margin-top="5" pagecolor="#ffffff" showgrid="false" showguides="false">
      <sodipodi:guide id="guide3069" orientation="0,1" position="13.596197,12.169651"/>
      <sodipodi:guide id="guide3071" orientation="1,0" position="33.294172,360.16718"/>
      <sodipodi:guide id="guide3093" orientation="1e-05,-135" position="189.29417,96.169651"/>
      <sodipodi:guide id="guide3101" orientation="1e-05,-135" position="189.29417,18.169651"/>
      <sodipodi:guide id="guide3105" orientation="1e-05,-135" position="189.29417,72.169651"/>
      <sodipodi:guide id="guide3130" orientation="1e-05,-135" position="189.29417,92.169651"/>
      <sodipodi:guide id="guide4118" orientation="0,10.01517" position="196.6791,76.169651"/>
      <sodipodi:guide id="guide4369" orientation="0,10.015168" position="-13.705598,68.169651"/>
      <sodipodi:guide id="guide4401" orientation="10.01516,0" position="85.294168,128.95274"/>
      <sodipodi:guide id="guide4427" orientation="8.40461,0" position="105.29417,5.7947706"/>
      <sodipodi:guide id="guide4429" orientation="8.40461,0" position="101.29417,5.7947706"/>
      <sodipodi:guide id="guide4431" orientation="8.40461,0" position="97.294168,97.848416"/>
      <sodipodi:guide id="guide4433" orientation="8.40461,0" position="93.294168,5.7947706"/>
      <sodipodi:guide id="guide4435" orientation="8.40461,0" position="89.294168,5.7947706"/>
      <sodipodi:guide id="guide4439" orientation="0,10.01517" position="196.6791,16.169651"/>
      <sodipodi:guide id="guide4503" orientation="3.18206,0" position="141.29417,10.755051"/>
      <sodipodi:guide id="guide4505" orientation="3.18206,0" position="137.29417,10.755051"/>
      <sodipodi:guide id="guide4507" orientation="3.18206,0" position="133.29417,99.35843"/>
      <sodipodi:guide id="guide4509" orientation="3.18206,0" position="129.29417,10.755051"/>
      <sodipodi:guide id="guide4511" orientation="3.18206,0" position="125.29417,10.755051"/>
      <sodipodi:guide id="guide4513" orientation="3.18206,0" position="121.29417,10.755051"/>
      <sodipodi:guide id="guide4515" orientation="3.18206,0" position="117.29417,10.755051"/>
      <sodipodi:guide id="guide4517" orientation="3.18206,0" position="113.29417,10.755051"/>
      <sodipodi:guide id="guide5061" orientation="4.33466,0" position="109.29417,102.05072"/>
      <sodipodi:guide id="guide5079" orientation="10.01516,0" position="98.894172,129.17769"/>
      <sodipodi:guide id="guide5081" orientation="10.01516,0" position="94.894172,129.17769"/>
      <sodipodi:guide id="guide5083" orientation="10.01516,0" position="90.894172,129.17769"/>
      <sodipodi:guide id="guide5085" orientation="10.01516,0" position="86.894172,129.17769"/>
      <sodipodi:guide id="guide5087" orientation="10.01516,0" position="82.894172,129.17769"/>
      <sodipodi:guide id="guide5089" orientation="10.01516,0" position="78.894172,129.17769"/>
      <sodipodi:guide id="guide5091" orientation="10.01516,0" position="74.894172,129.17769"/>
      <sodipodi:guide id="guide5093" orientation="10.01516,0" position="70.894172,129.17769"/>
      <sodipodi:guide id="guide5195" orientation="5.98976,0" position="133.49417,8.1171319"/>
      <sodipodi:guide id="guide5199" orientation="0,10.015169" position="-10.600129,60.169652"/>
      <sodipodi:guide id="guide4551" orientation="4.119,0" position="55.294172,12.169652"/>
      <sodipodi:guide id="guide5176" orientation="10.01516,0" position="51.294171,121.43022"/>
      <sodipodi:guide id="guide5178" orientation="10.01516,0" position="48.294172,121.43022"/>
      <sodipodi:guide id="guide5194" orientation="10.01516,0" position="30.294173,121.43022"/>
      <sodipodi:guide id="guide5196" orientation="10.01516,0" position="23.294172,121.43022"/>
      <sodipodi:guide id="guide5222" orientation="0,10.015169" position="8.1944369,63.169652"/>
      <sodipodi:guide id="guide5224" orientation="0,10.015169" position="8.1944369,81.169652"/>
      <sodipodi:guide id="guide5230" orientation="0,10.015169" position="8.1944369,17.169652"/>
      <sodipodi:guide id="guide5232" orientation="0,10.015169" position="8.1944369,31.169652"/>
      <sodipodi:guide id="guide4902" orientation="1e-05,-3.462826" position="72.625585,100.28865"/>
      <sodipodi:guide id="guide4906" orientation="10.01516,1e-05" position="154.69426,81.177232"/>
      <sodipodi:guide id="guide4148" orientation="0,3.68795" position="163.63377,20.169652"/>
    </sodipodi:namedview>
    <path id="path3132" class="st4" d="M3169.037,154.488v187.411h7.208l7.208,7.208h93.705l7.208-7.208h32.436l3.604-3.604v-183.807h-151.37Z"/>
    <rect id="rect3908" class="st4" x="3171.74" y="155.389" width="37.843" height="25.228" transform="translate(3358.664 -3022.658) rotate(90)"/>
    <rect id="rect3950" class="st4" x="3254.633" y="142.775" width="45.051" height="32.436" transform="translate(3436.151 -3118.165) rotate(90)"/>
    <path id="path42531" data-name="path4253" class="st4" d="M3190.661,346.403c-2.487,0-4.505-2.018-4.505-4.505s2.018-4.505,4.505-4.505,4.505,2.018,4.505,4.505-2.018,4.505-4.505,4.505Z"/>
    <path id="path43711" data-name="path4371" class="st4" d="M3269.95,346.403c-2.487,0-4.505-2.018-4.505-4.505s2.018-4.505,4.505-4.505,4.505,2.018,4.505,4.505-2.018,4.505-4.505,4.505Z"/>
    <path id="path4461" class="st2" d="M3176.245,256.572c-.649,0-1.171-.523-1.171-1.171h0c0-.649.523-1.171,1.171-1.171h0c.649,0,1.171.523,1.171,1.171h0c0,.649-.523,1.171-1.171,1.171h0Z"/>
    <path id="path4467" class="st2" d="M3176.245,263.781c-.649,0-1.171-.523-1.171-1.171h0c0-.649.523-1.171,1.171-1.171h0c.649,0,1.171.523,1.171,1.171h0c0,.649-.523,1.171-1.171,1.171h0Z"/>
    <path id="path4473" class="st2" d="M3176.245,270.989c-.649,0-1.171-.523-1.171-1.171h0c0-.649.523-1.171,1.171-1.171h0c.649,0,1.171.523,1.171,1.171h0c0,.649-.523,1.171-1.171,1.171h0Z"/>
    <path id="path4479" class="st2" d="M3176.245,278.197c-.649,0-1.171-.523-1.171-1.171h0c0-.649.523-1.171,1.171-1.171h0c.649,0,1.171.523,1.171,1.171h0c0,.649-.523,1.171-1.171,1.171h0Z"/>
    <path id="path4529" class="st2" d="M3176.245,307.029c-.649,0-1.171-.523-1.171-1.171h0c0-.649.523-1.171,1.171-1.171h0c.649,0,1.171.523,1.171,1.171h0c0,.649-.523,1.171-1.171,1.171h0Z"/>
    <path id="path4535" class="st2" d="M3176.245,314.237c-.649,0-1.171-.523-1.171-1.171h0c0-.649.523-1.171,1.171-1.171h0c.649,0,1.171.523,1.171,1.171h0c0,.649-.523,1.171-1.171,1.171h0Z"/>
    <path id="path4541" class="st2" d="M3176.245,321.445c-.649,0-1.171-.523-1.171-1.171h0c0-.649.523-1.171,1.171-1.171h0c.649,0,1.171.523,1.171,1.171h0c0,.649-.523,1.171-1.171,1.171h0Z"/>
    <path id="path4547" class="st2" d="M3176.245,328.653c-.649,0-1.171-.523-1.171-1.171h0c0-.649.523-1.171,1.171-1.171h0c.649,0,1.171.523,1.171,1.171h0c0,.649-.523,1.171-1.171,1.171h0Z"/>
    <path id="path5015" class="st2" d="M3313.199,299.821c-.649,0-1.171-.523-1.171-1.171h0c0-.649.523-1.171,1.171-1.171h0c.649,0,1.171.523,1.171,1.171h0c0,.649-.523,1.171-1.171,1.171h0Z"/>
    <path id="path5021" class="st2" d="M3313.199,307.029c-.649,0-1.171-.523-1.171-1.171h0c0-.649.523-1.171,1.171-1.171h0c.649,0,1.171.523,1.171,1.171h0c0,.649-.523,1.171-1.171,1.171h0Z"/>
    <path id="path5027" class="st2" d="M3313.199,314.237c-.649,0-1.171-.523-1.171-1.171h0c0-.649.523-1.171,1.171-1.171h0c.649,0,1.171.523,1.171,1.171h0c0,.649-.523,1.171-1.171,1.171h0Z"/>
    <path id="path5033" class="st2" d="M3313.199,321.445c-.649,0-1.171-.523-1.171-1.171h0c0-.649.523-1.171,1.171-1.171h0c.649,0,1.171.523,1.171,1.171h0c0,.649-.523,1.171-1.171,1.171h0Z"/>
    <path id="path5039" class="st2" d="M3313.199,328.653c-.649,0-1.171-.523-1.171-1.171h0c0-.649.523-1.171,1.171-1.171h0c.649,0,1.171.523,1.171,1.171h0c0,.649-.523,1.171-1.171,1.171h0Z"/>
    <path id="path5057" class="st2" d="M3313.199,292.613c-.649,0-1.171-.523-1.171-1.171h0c0-.649.523-1.171,1.171-1.171h0c.649,0,1.171.523,1.171,1.171h0c0,.649-.523,1.171-1.171,1.171h0Z"/>
    <path id="path5099" class="st2" d="M3313.199,237.831c-.649,0-1.171-.523-1.171-1.171h0c0-.649.523-1.171,1.171-1.171h0c.649,0,1.171.523,1.171,1.171h0c0,.649-.523,1.171-1.171,1.171h0Z"/>
    <path id="path5105" class="st2" d="M3313.199,245.039c-.649,0-1.171-.523-1.171-1.171h0c0-.649.523-1.171,1.171-1.171h0c.649,0,1.171.523,1.171,1.171h0c0,.649-.523,1.171-1.171,1.171h0Z"/>
    <path id="path5111" class="st2" d="M3313.199,252.248c-.649,0-1.171-.523-1.171-1.171h0c0-.649.523-1.171,1.171-1.171h0c.649,0,1.171.523,1.171,1.171h0c0,.649-.523,1.171-1.171,1.171h0Z"/>
    <path id="path5117" class="st2" d="M3313.199,259.456c-.649,0-1.171-.523-1.171-1.171h0c0-.649.523-1.171,1.171-1.171h0c.649,0,1.171.523,1.171,1.171h0c0,.649-.523,1.171-1.171,1.171h0Z"/>
    <path id="path5123" class="st2" d="M3313.199,266.664c-.649,0-1.171-.523-1.171-1.171h0c0-.649.523-1.171,1.171-1.171h0c.649,0,1.171.523,1.171,1.171h0c0,.649-.523,1.171-1.171,1.171h0Z"/>
    <path id="path5141" class="st2" d="M3313.199,230.623c-.649,0-1.171-.523-1.171-1.171h0c0-.649.523-1.171,1.171-1.171h0c.649,0,1.171.523,1.171,1.171h0c0,.649-.523,1.171-1.171,1.171h0Z"/>
    <path id="path43551" data-name="path4355" class="st4" d="M3313.199,202.241c-2.487,0-4.505-2.018-4.505-4.505s2.018-4.505,4.505-4.505,4.505,2.018,4.505,4.505-2.018,4.505-4.505,4.505Z"/>
    <path id="path45541" data-name="path4554" class="st4" d="M3176.245,198.637c-2.487,0-4.505-2.018-4.505-4.505s2.018-4.505,4.505-4.505,4.505,2.018,4.505,4.505-2.018,4.505-4.505,4.505Z"/>
    <path id="path5135" class="st2" d="M3313.199,223.415c-.649,0-1.171-.523-1.171-1.171h0c0-.649.523-1.171,1.171-1.171h0c.649,0,1.171.523,1.171,1.171h0c0,.649-.523,1.171-1.171,1.171h0Z"/>
    <path id="path5051" class="st2" d="M3313.199,285.405c-.649,0-1.171-.523-1.171-1.171h0c0-.649.523-1.171,1.171-1.171h0c.649,0,1.171.523,1.171,1.171h0c0,.649-.523,1.171-1.171,1.171h0Z"/>
    <path id="path5129" class="st2" d="M3313.199,273.872c-.649,0-1.171-.523-1.171-1.171h0c0-.649.523-1.171,1.171-1.171h0c.649,0,1.171.523,1.171,1.171h0c0,.649-.523,1.171-1.171,1.171h0Z"/>
    <path id="path5045" class="st2" d="M3313.199,335.861c-.649,0-1.171-.523-1.171-1.171h0c0-.649.523-1.171,1.171-1.171h0c.649,0,1.171.523,1.171,1.171h0c0,.649-.523,1.171-1.171,1.171h0Z"/>
    <path id="path4441" class="st2" d="M3176.245,249.364c-.649,0-1.171-.523-1.171-1.171h0c0-.649.523-1.171,1.171-1.171h0c.649,0,1.171.523,1.171,1.171h0c0,.649-.523,1.171-1.171,1.171h0Z"/>
    <path id="path4485" class="st2" d="M3176.245,285.405c-.649,0-1.171-.523-1.171-1.171h0c0-.649.523-1.171,1.171-1.171h0c.649,0,1.171.523,1.171,1.171h0c0,.649-.523,1.171-1.171,1.171h0Z"/>
    <path id="path4523" class="st2" d="M3176.245,299.821c-.649,0-1.171-.523-1.171-1.171h0c0-.649.523-1.171,1.171-1.171h0c.649,0,1.171.523,1.171,1.171h0c0,.649-.523,1.171-1.171,1.171h0Z"/>
    <path id="path4553" class="st2" d="M3176.245,335.861c-.649,0-1.171-.523-1.171-1.171h0c0-.649.523-1.171,1.171-1.171h0c.649,0,1.171.523,1.171,1.171h0c0,.649-.523,1.171-1.171,1.171h0Z"/>
    <path id="path5222" class="st2" d="M3313.199,216.207c-.649,0-1.171-.523-1.171-1.171h0c0-.649.523-1.171,1.171-1.171h0c.649,0,1.171.523,1.171,1.171h0c0,.649-.523,1.171-1.171,1.171h0Z"/>
    <path id="path5230" class="st2" d="M3313.199,208.999c-.649,0-1.171-.523-1.171-1.171h0c0-.649.523-1.171,1.171-1.171h0c.649,0,1.171.523,1.171,1.171h0c0,.649-.523,1.171-1.171,1.171h0Z"/>
    <path id="path5250" class="st2" d="M3176.245,242.156c-.649,0-1.171-.523-1.171-1.171h0c0-.649.523-1.171,1.171-1.171h0c.649,0,1.171.523,1.171,1.171h0c0,.649-.523,1.171-1.171,1.171h0Z"/>
    <path id="path5262" class="st2" d="M3176.245,234.948c-.649,0-1.171-.523-1.171-1.171h0c0-.649.523-1.171,1.171-1.171h0c.649,0,1.171.523,1.171,1.171h0c0,.649-.523,1.171-1.171,1.171h0Z"/>
  </g>
  <path id="bottom_outsideCutPath1" data-name="bottom_outsideCutPath" class="st1" d="M63.071,1414.407v51.307h-8.504v49.776h8.504v49.776h-8.504v49.776h8.504v49.776h-8.504v49.776h8.504v51.307h52.951v8.504h49.776v-8.504h49.776s49.776,0,49.776,0v8.504h49.776s49.776,0,49.776,0v-8.504h49.776v8.504h49.776v-8.504h49.776v8.504h49.776v-8.504h49.777v8.504h49.776v-8.504h49.776v8.504h49.776v-8.504h49.776v8.504h49.776s49.776,0,49.776,0v-8.504h49.776s49.776,0,49.776,0v8.504h49.776v-8.504h52.951v-51.307h8.504v-49.776h-8.504v-49.776h8.504v-49.776h-8.504v-49.776h8.504v-49.776h-8.504v-51.307h-52.951v-8.504h-49.776v8.504h-49.776s-49.776,0-49.776,0v-8.504h-49.776s-49.776,0-49.776,0v8.504h-49.776v-8.504h-49.776v8.504h-49.776v-8.504h-49.776v8.504h-49.777v-8.504h-49.776v8.504h-49.776v-8.504h-49.776v8.504h-49.776v-8.504h-49.776s-49.776,0-49.776,0v8.504h-49.776s-49.776,0-49.776,0v-8.504h-49.776v8.504h-52.951Z" vector-effect="non-scaling-stroke"/>
  <path id="bottom_outsideCutPath2" data-name="bottom_outsideCutPath" class="st1" d="M63.071,1037.555v51.307h-8.504v49.776h8.504v49.776h-8.504v49.776h8.504v49.776h-8.504v49.776h8.504v51.307h52.951v8.504h49.776v-8.504h49.776s49.776,0,49.776,0v8.504h49.776s49.776,0,49.776,0v-8.504h49.776v8.504h49.776v-8.504h49.776v8.504h49.776v-8.504h49.777v8.504h49.776v-8.504h49.776v8.504h49.776v-8.504h49.776v8.504h49.776s49.776,0,49.776,0v-8.504h49.776s49.776,0,49.776,0v8.504h49.776v-8.504h52.951v-51.307h8.504v-49.776h-8.504v-49.776h8.504v-49.776h-8.504v-49.776h8.504v-49.776h-8.504v-51.307h-52.951v-8.504h-49.776v8.504h-49.776s-49.776,0-49.776,0v-8.504h-49.776s-49.776,0-49.776,0v8.504h-49.776v-8.504h-49.776v8.504h-49.776v-8.504h-49.776v8.504h-49.777v-8.504h-49.776v8.504h-49.776v-8.504h-49.776v8.504h-49.776v-8.504h-49.776s-49.776,0-49.776,0v8.504h-49.776s-49.776,0-49.776,0v-8.504h-49.776v8.504h-52.951Z" vector-effect="non-scaling-stroke"/>
  <circle class="st6" cx="166.798" cy="1213.304" r="38.268"/>
  <path id="back_outsideCutPath3" data-name="back_outsideCutPath" class="st1" d="M54.567,910.152v26.135h8.504v49.776h-8.504v26.135h61.455v-8.504h49.776v17.008s49.776,0,49.776,0v-17.008h49.776v8.504h49.776v-8.504h49.776v8.504h49.776v-8.504h49.776v8.504h49.776v-8.504h49.776v8.504h49.776v-8.504h49.776v8.504h49.776v-8.504h49.776v8.504h49.776v-8.504h49.776v8.504h49.776v-8.504h49.776v17.008h49.776v-17.008h49.776v8.504h61.455v-26.135h-8.504v-49.776h8.504v-26.135h-61.455v8.504h-49.776v-17.008h-49.776v17.008h-49.776v-8.504h-49.776v8.504h-49.776v-8.504h-49.776v8.504h-49.776v-8.504h-49.776v8.504h-49.776v-8.504h-49.776v8.504h-49.776v-8.504h-49.776v8.504h-49.776v-8.504h-49.776v8.504h-49.776v-8.504h-49.776v8.504h-49.776v-17.008h-49.776v17.008h-49.776v-8.504h-61.455Z" vector-effect="non-scaling-stroke"/>
  <path id="front_outsideCutPath1" data-name="front_outsideCutPath" class="st5" d="M647.364,28.305h-50.494v8.504h-39.331v-8.504h-39.331v8.504h-39.331v-8.504h-39.331v8.504h-39.331v-8.504h-39.331v8.504h-39.331v-8.504h-39.331v8.504h-39.331v-8.504h-39.331v8.504h-39.331v-8.504h-39.331v8.504h-39.331v-8.504h-50.491v26.753h8.504v39.331h-8.504v39.331h8.504v39.331h-8.504v39.331h8.504v39.331h-8.504v39.331h8.504v39.331h-8.504v26.751h50.491v-8.504h39.331v8.504h39.331v-8.504h39.331v8.504h39.331v-8.504h39.331v8.504h39.331v-8.504h39.331v8.504h39.331v-8.504h39.331v8.504h39.331v-8.504h39.331v8.504h39.331v-8.504h39.331v8.504h50.494v-26.751h-8.504v-39.331h8.504v-39.331h-8.504v-39.331h8.504v-39.331h-8.504v-39.331h8.504v-39.331h-8.504v-39.331h8.504v-26.753Z" vector-effect="non-scaling-stroke"/>
  <path id="left_outsideCutPath2" data-name="left_outsideCutPath" class="st5" d="M647.364,374.431h-50.494v-8.504h-39.331v8.504h-39.331v-8.504h-39.331v8.504h-39.331v-8.504h-39.331v8.504h-39.331v-8.504h-39.331v8.504h-39.331v-8.504h-39.331v8.504h-39.331v-8.504h-39.331v8.504h-39.331v-8.504h-39.331v8.504h-50.491v31.36h8.504v39.331h-8.504v31.357h50.491v8.504h39.331v-8.504h39.331v8.504h39.331v-8.504h39.331v8.504h39.331v-8.504h39.331v8.504h39.331v-8.504h39.331v8.504h39.331v-8.504h39.331v8.504h39.331v-8.504h39.331v8.504h39.331v-8.504h50.494v-31.357h-8.504v-39.331h8.504v-31.36Z" vector-effect="non-scaling-stroke"/>
  <path id="top_outsideCutPath1" data-name="top_outsideCutPath" class="st5" d="M355.395,603.739v-31.36s8.504,0,8.504,0v-39.331s-8.504,0-8.504,0v-31.357s-18.249,0-18.249,0v-8.504s-39.331,0-39.331,0v8.504s-39.331,0-39.331,0v-8.504s-39.331,0-39.331,0v8.504s-39.331,0-39.331,0v-8.504s-39.331,0-39.331,0v8.504s-39.331,0-39.331,0v-8.504s-39.331,0-39.331,0v8.504s-18.247,0-18.247,0v31.357s-8.504,0-8.504,0v39.331s8.504,0,8.504,0v31.36s18.247,0,18.247,0v8.504s39.331,0,39.331,0v-8.504s39.331,0,39.331,0v8.504s39.331,0,39.331,0v-8.504s39.331,0,39.331,0v8.504s39.331,0,39.331,0v-8.504s39.331,0,39.331,0v8.504s39.331,0,39.331,0v-8.504s18.249,0,18.249,0Z" vector-effect="non-scaling-stroke"/>
  <path id="back_outsideCutPath4" data-name="back_outsideCutPath" class="st5" d="M1268.151,28.305h-50.494v8.504h-39.331v-8.504h-39.331v8.504h-39.331v-8.504h-39.331v8.504h-39.331v-8.504h-39.331v8.504h-39.331v-8.504h-39.331v8.504h-39.331v-8.504h-39.331v8.504h-39.331v-8.504h-39.331v8.504h-39.331v-8.504h-50.491v26.753h8.504v39.331h-8.504v39.331h8.504v39.331h-8.504v39.331h8.504v39.331h-8.504v39.331h8.504v39.331h-8.504v26.751h50.491v-8.504h39.331v8.504h39.331v-8.504h39.331v8.504h39.331v-8.504h39.331v8.504h39.331v-8.504h39.331v8.504h39.331v-8.504h39.331v8.504h39.331v-8.504h39.331v8.504h39.331v-8.504h39.331v8.504h50.494v-26.751h-8.504v-39.331h8.504v-39.331h-8.504v-39.331h8.504v-39.331h-8.504v-39.331h8.504v-39.331h-8.504v-39.331h8.504v-26.753Z" vector-effect="non-scaling-stroke"/>
  <path id="right_outsideCutPath2" data-name="right_outsideCutPath" class="st5" d="M1268.151,374.132h-50.494v-8.504h-39.331v8.504h-39.331v-8.504h-39.331v8.504h-39.331v-8.504h-39.331v8.504h-39.331v-8.504h-39.331v8.504h-39.331v-8.504h-39.331v8.504h-39.331v-8.504h-39.331v8.504h-39.331v-8.504h-39.331v8.504h-50.491v31.36h8.504v39.331h-8.504v31.357h50.491v8.504h39.331v-8.504h39.331v8.504h39.331v-8.504h39.331v8.504h39.331v-8.504h39.331v8.504h39.331v-8.504h39.331v8.504h39.331v-8.504h39.331v8.504h39.331v-8.504h39.331v8.504h39.331v-8.504h50.494v-31.357h-8.504v-39.331h8.504v-31.36Z" vector-effect="non-scaling-stroke"/>
  <path id="bottom_outsideCutPath3" data-name="bottom_outsideCutPath" class="st5" d="M694.776,603.739v-31.36s8.504,0,8.504,0v-39.331s-8.504,0-8.504,0v-31.357s-18.249,0-18.249,0v-8.504s-39.331,0-39.331,0v8.504s-39.331,0-39.331,0v-8.504s-39.331,0-39.331,0v8.504s-39.331,0-39.331,0v-8.504s-39.331,0-39.331,0v8.504s-39.331,0-39.331,0v-8.504s-39.331,0-39.331,0v8.504s-18.247,0-18.247,0v31.357s-8.504,0-8.504,0v39.331s8.504,0,8.504,0v31.36s18.247,0,18.247,0v8.504s39.331,0,39.331,0v-8.504s39.331,0,39.331,0v8.504s39.331,0,39.331,0v-8.504s39.331,0,39.331,0v8.504s39.331,0,39.331,0v-8.504s39.331,0,39.331,0v8.504s39.331,0,39.331,0v-8.504s18.249,0,18.249,0Z" vector-effect="non-scaling-stroke"/>
  <circle class="st3" cx="284.529" cy="425.455" r="29.764"/>
</svg>